<svg xmlns="http://www.w3.org/2000/svg" width="250.61" height="35" viewBox="0 0 250.61 35"><rect class="svg__rect" x="0" y="0" width="127.25" height="35" fill="#1B77AE"/><rect class="svg__rect" x="125.25" y="0" width="125.36000000000001" height="35" fill="#E46C17"/><path class="svg__text" d="M15.70 22L14.22 22L14.22 13.47L17.48 13.47Q18.91 13.47 19.75 14.21Q20.59 14.96 20.59 16.18L20.59 16.18Q20.59 17.44 19.77 18.13Q18.95 18.83 17.46 18.83L17.46 18.83L15.70 18.83L15.70 22ZM15.70 14.66L15.70 17.64L17.48 17.64Q18.27 17.64 18.69 17.27Q19.10 16.90 19.10 16.19L19.10 16.19Q19.10 15.50 18.68 15.09Q18.26 14.68 17.52 14.66L17.52 14.66L15.70 14.66ZM24.61 18.00L24.61 18.00L24.61 17.52Q24.61 16.28 25.05 15.32Q25.49 14.37 26.30 13.86Q27.10 13.35 28.14 13.35Q29.19 13.35 29.99 13.85Q30.80 14.35 31.24 15.29Q31.68 16.23 31.68 17.48L31.68 17.48L31.68 17.96Q31.68 19.21 31.25 20.16Q30.82 21.10 30.01 21.61Q29.21 22.12 28.16 22.12L28.16 22.12Q27.12 22.12 26.31 21.61Q25.50 21.10 25.05 20.17Q24.61 19.23 24.61 18.00ZM26.09 17.46L26.09 17.96Q26.09 19.36 26.64 20.13Q27.18 20.90 28.16 20.90L28.16 20.90Q29.14 20.90 29.67 20.15Q30.20 19.40 30.20 17.96L30.20 17.96L30.20 17.51Q30.20 16.09 29.67 15.34Q29.13 14.58 28.14 14.58L28.14 14.58Q27.18 14.58 26.64 15.33Q26.10 16.09 26.09 17.46L26.09 17.46ZM37.53 22L35.56 13.47L37.03 13.47L38.36 19.88L39.99 13.47L41.23 13.47L42.84 19.89L44.15 13.47L45.62 13.47L43.65 22L42.24 22L40.61 15.77L38.96 22L37.53 22ZM55.27 22L49.70 22L49.70 13.47L55.23 13.47L55.23 14.66L51.18 14.66L51.18 17.02L54.68 17.02L54.68 18.19L51.18 18.19L51.18 20.82L55.27 20.82L55.27 22ZM60.95 22L59.47 22L59.47 13.47L62.47 13.47Q63.95 13.47 64.75 14.13Q65.55 14.79 65.55 16.05L65.55 16.05Q65.55 16.90 65.14 17.48Q64.72 18.06 63.99 18.37L63.99 18.37L65.90 21.92L65.90 22L64.31 22L62.60 18.71L60.95 18.71L60.95 22ZM60.95 14.66L60.95 17.52L62.48 17.52Q63.23 17.52 63.65 17.15Q64.07 16.77 64.07 16.11L64.07 16.11Q64.07 15.43 63.68 15.05Q63.29 14.68 62.52 14.66L62.52 14.66L60.95 14.66ZM75.52 22L69.95 22L69.95 13.47L75.48 13.47L75.48 14.66L71.43 14.66L71.43 17.02L74.93 17.02L74.93 18.19L71.43 18.19L71.43 20.82L75.52 20.82L75.52 22ZM82.17 22L79.72 22L79.72 13.47L82.24 13.47Q83.37 13.47 84.25 13.97Q85.12 14.48 85.60 15.40Q86.08 16.33 86.08 17.52L86.08 17.52L86.08 17.95Q86.08 19.16 85.60 20.08Q85.12 21.00 84.22 21.50Q83.33 22 82.17 22L82.17 22ZM81.20 14.66L81.20 20.82L82.17 20.82Q83.33 20.82 83.96 20.09Q84.58 19.36 84.59 17.99L84.59 17.99L84.59 17.52Q84.59 16.13 83.99 15.40Q83.39 14.66 82.24 14.66L82.24 14.66L81.20 14.66ZM99.64 22L96.52 22L96.52 13.47L99.45 13.47Q100.89 13.47 101.65 14.05Q102.41 14.63 102.41 15.78L102.41 15.78Q102.41 16.36 102.09 16.83Q101.77 17.30 101.16 17.56L101.16 17.56Q101.86 17.75 102.23 18.26Q102.61 18.78 102.61 19.51L102.61 19.51Q102.61 20.71 101.84 21.36Q101.07 22 99.64 22L99.64 22ZM98.01 18.15L98.01 20.82L99.65 20.82Q100.35 20.82 100.74 20.47Q101.14 20.13 101.14 19.51L101.14 19.51Q101.14 18.18 99.78 18.15L99.78 18.15L98.01 18.15ZM98.01 14.66L98.01 17.06L99.46 17.06Q100.15 17.06 100.54 16.75Q100.93 16.43 100.93 15.86L100.93 15.86Q100.93 15.23 100.57 14.95Q100.21 14.66 99.45 14.66L99.45 14.66L98.01 14.66ZM109.12 18.86L106.26 13.47L107.90 13.47L109.87 17.51L111.83 13.47L113.47 13.47L110.61 18.86L110.61 22L109.12 22L109.12 18.86Z" fill="#FFFFFF"/><path class="svg__text" d="M143.98 22L139.44 22L139.44 13.60L143.74 13.60Q145.34 13.60 146.18 14.19Q147.03 14.79 147.03 15.79L147.03 15.79Q147.03 16.39 146.73 16.87Q146.43 17.34 145.89 17.62L145.89 17.62Q146.62 17.87 147.02 18.41Q147.43 18.94 147.43 19.70L147.43 19.70Q147.43 20.80 146.54 21.40Q145.65 22 143.98 22L143.98 22ZM141.79 18.58L141.79 20.28L143.79 20.28Q145.03 20.28 145.03 19.43L145.03 19.43Q145.03 18.58 143.79 18.58L143.79 18.58L141.79 18.58ZM141.79 15.31L141.79 16.94L143.42 16.94Q144.62 16.94 144.62 16.12L144.62 16.12Q144.62 15.31 143.42 15.31L143.42 15.31L141.79 15.31ZM153.56 22L151.14 22L154.85 13.60L157.19 13.60L160.91 22L158.44 22L157.78 20.37L154.23 20.37L153.56 22ZM156.00 15.93L154.92 18.61L157.08 18.61L156.00 15.93ZM167.39 22L165.06 22L165.06 13.60L167.02 13.60L170.73 18.07L170.73 13.60L173.05 13.60L173.05 22L171.10 22L167.39 17.52L167.39 22ZM180.59 22L178.22 22L178.22 13.60L180.59 13.60L180.59 22ZM189.74 22L185.77 22L185.77 13.60L189.74 13.60Q191.12 13.60 192.19 14.12Q193.26 14.63 193.85 15.58Q194.43 16.53 194.43 17.80L194.43 17.80Q194.43 19.07 193.85 20.02Q193.26 20.97 192.19 21.48Q191.12 22 189.74 22L189.74 22ZM188.15 15.50L188.15 20.10L189.65 20.10Q190.72 20.10 191.38 19.49Q192.03 18.88 192.03 17.80L192.03 17.80Q192.03 16.72 191.38 16.11Q190.72 15.50 189.65 15.50L189.65 15.50L188.15 15.50ZM203.70 22L199.16 22L199.16 13.60L203.46 13.60Q205.07 13.60 205.91 14.19Q206.75 14.79 206.75 15.79L206.75 15.79Q206.75 16.39 206.45 16.87Q206.16 17.34 205.62 17.62L205.62 17.62Q206.34 17.87 206.75 18.41Q207.15 18.94 207.15 19.70L207.15 19.70Q207.15 20.80 206.27 21.40Q205.38 22 203.70 22L203.70 22ZM201.52 18.58L201.52 20.28L203.51 20.28Q204.76 20.28 204.76 19.43L204.76 19.43Q204.76 18.58 203.51 18.58L203.51 18.58L201.52 18.58ZM201.52 15.31L201.52 16.94L203.15 16.94Q204.35 16.94 204.35 16.12L204.35 16.12Q204.35 15.31 203.15 15.31L203.15 15.31L201.52 15.31ZM211.36 20.75L211.36 20.75Q211.36 20.15 211.75 19.78Q212.14 19.41 212.73 19.41L212.73 19.41Q213.32 19.41 213.71 19.78Q214.09 20.15 214.09 20.75L214.09 20.75Q214.09 21.34 213.70 21.72Q213.31 22.11 212.73 22.11L212.73 22.11Q212.15 22.11 211.75 21.72Q211.36 21.34 211.36 20.75ZM221.13 22L218.75 22L218.75 13.60L222.59 13.60Q223.73 13.60 224.57 13.98Q225.41 14.35 225.87 15.06Q226.33 15.76 226.33 16.71L226.33 16.71Q226.33 17.66 225.87 18.35Q225.41 19.05 224.57 19.42Q223.73 19.80 222.59 19.80L222.59 19.80L221.13 19.80L221.13 22ZM221.13 15.47L221.13 17.93L222.45 17.93Q223.18 17.93 223.55 17.61Q223.92 17.29 223.92 16.71L223.92 16.71Q223.92 16.12 223.55 15.80Q223.18 15.47 222.45 15.47L222.45 15.47L221.13 15.47ZM233.21 18.95L230.00 13.60L232.51 13.60L234.50 16.94L236.49 13.60L238.80 13.60L235.58 18.99L235.58 22L233.21 22L233.21 18.95Z" fill="#FFFFFF" x="138.25"/></svg>