<svg width="708" height="155" viewBox="0 0 708 155" fill="none" xmlns="http://www.w3.org/2000/svg">
<circle cx="75" cy="75" r="75" fill="#FA9D1D"/>
<circle cx="75.5" cy="75.5" r="62.5" fill="#76809A"/>
<circle cx="75" cy="75" r="50" fill="#373E66"/>
<path fill-rule="evenodd" clip-rule="evenodd" d="M41 111.661V97.2361C51.7427 95.7828 63.1618 95 75 95C86.8382 95 98.2573 95.7828 109 97.2361V111.661C100.078 119.939 88.1303 125 75 125C61.8697 125 49.9216 119.939 41 111.661Z" fill="#00669B"/>
<path fill-rule="evenodd" clip-rule="evenodd" d="M75.5439 92.7875C85.2304 83.9996 91.3 71.3955 91.3 57.3938C91.3 43.392 85.2304 30.7879 75.5439 22C65.8574 30.7879 59.7878 43.392 59.7878 57.3938C59.7878 71.3955 65.8574 83.9996 75.5439 92.7875Z" fill="#FB9F1C"/>
<path fill-rule="evenodd" clip-rule="evenodd" d="M74.7561 92.7875C84.4426 83.9996 90.5122 71.3955 90.5122 57.3938C90.5122 43.392 84.4426 30.7879 74.7561 22C65.0696 30.7879 59 43.392 59 57.3938C59 71.3955 65.0696 83.9996 74.7561 92.7875Z" fill="#FB9F1C"/>
<path fill-rule="evenodd" clip-rule="evenodd" d="M75.15 93.0276C81.2041 87.5351 84.9976 79.6576 84.9976 70.9065C84.9976 62.1553 81.2041 54.2778 75.15 48.7854C69.0959 54.2778 65.3024 62.1553 65.3024 70.9065C65.3024 79.6576 69.0959 87.5351 75.15 93.0276Z" fill="#FCED1F"/>
<path d="M164.774 111V29.2422H191.503C200.375 29.2422 207.038 31.0765 211.493 34.7451C215.985 38.4137 218.231 43.8418 218.231 51.0293C218.231 54.8477 217.146 58.2355 214.975 61.1929C212.803 64.1128 209.846 66.3776 206.103 67.9873C210.52 69.2227 214.001 71.5811 216.547 75.0625C219.13 78.5065 220.421 82.6243 220.421 87.416C220.421 94.7533 218.044 100.518 213.29 104.711C208.536 108.904 201.816 111 193.131 111H164.774ZM175.556 72.7603V102.184H193.356C198.372 102.184 202.322 100.893 205.204 98.3096C208.124 95.6891 209.584 92.0954 209.584 87.5283C209.584 77.6829 204.231 72.7603 193.524 72.7603H175.556ZM175.556 64.1128H191.84C196.557 64.1128 200.319 62.9336 203.126 60.5752C205.972 58.2168 207.394 55.0161 207.394 50.9731C207.394 46.481 206.084 43.2241 203.463 41.2026C200.843 39.1437 196.856 38.1143 191.503 38.1143H175.556V64.1128ZM272.306 111C271.707 109.802 271.221 107.668 270.846 104.599C266.017 109.615 260.252 112.123 253.551 112.123C247.562 112.123 242.639 110.438 238.783 107.069C234.965 103.663 233.056 99.3577 233.056 94.1543C233.056 87.8278 235.451 82.9238 240.243 79.4424C245.072 75.9235 251.848 74.1641 260.57 74.1641H270.678V69.3911C270.678 65.7599 269.592 62.8774 267.421 60.7437C265.25 58.5724 262.049 57.4868 257.819 57.4868C254.113 57.4868 251.006 58.4227 248.498 60.2944C245.989 62.1662 244.735 64.431 244.735 67.0889H234.291C234.291 64.0566 235.358 61.1367 237.492 58.3291C239.663 55.484 242.583 53.238 246.251 51.5908C249.958 49.9437 254.019 49.1201 258.437 49.1201C265.437 49.1201 270.921 50.8796 274.889 54.3984C278.857 57.8799 280.916 62.6903 281.066 68.8296V96.7935C281.066 102.371 281.777 106.807 283.2 110.102V111H272.306ZM255.067 103.083C258.324 103.083 261.413 102.24 264.333 100.556C267.252 98.8711 269.368 96.6812 270.678 93.9858V81.52H262.536C249.808 81.52 243.444 85.2448 243.444 92.6943C243.444 95.9512 244.529 98.4967 246.701 100.331C248.872 102.165 251.661 103.083 255.067 103.083ZM307.177 50.2432L307.514 57.8799C312.156 52.04 318.22 49.1201 325.707 49.1201C338.547 49.1201 345.023 56.3638 345.136 70.8511V111H334.748V70.7949C334.71 66.415 333.699 63.1769 331.715 61.0806C329.769 58.9842 326.718 57.936 322.562 57.936C319.193 57.936 316.236 58.8345 313.69 60.6313C311.145 62.4282 309.161 64.7866 307.738 67.7065V111H297.35V50.2432H307.177ZM372.089 111H361.701V50.2432H372.089V111ZM360.858 34.1274C360.858 32.4429 361.364 31.0203 362.375 29.8599C363.423 28.6994 364.958 28.1191 366.979 28.1191C369 28.1191 370.535 28.6994 371.583 29.8599C372.632 31.0203 373.156 32.4429 373.156 34.1274C373.156 35.812 372.632 37.2158 371.583 38.3389C370.535 39.4619 369 40.0234 366.979 40.0234C364.958 40.0234 363.423 39.4619 362.375 38.3389C361.364 37.2158 360.858 35.812 360.858 34.1274ZM390.395 111V29.2422H413.473C420.586 29.2422 426.875 30.8145 432.34 33.959C437.806 37.1035 442.017 41.577 444.975 47.3794C447.969 53.1818 449.486 59.8452 449.523 67.3696V72.5918C449.523 80.3034 448.026 87.0604 445.031 92.8628C442.073 98.6652 437.825 103.12 432.284 106.227C426.781 109.334 420.361 110.925 413.024 111H390.395ZM401.176 38.1143V102.184H412.519C420.829 102.184 427.287 99.6011 431.891 94.4351C436.533 89.269 438.854 81.9131 438.854 72.3672V67.5942C438.854 58.3104 436.664 51.1042 432.284 45.9756C427.942 40.8096 421.765 38.1891 413.754 38.1143H401.176ZM465.863 111V29.2422H492.592C501.464 29.2422 508.127 31.0765 512.582 34.7451C517.074 38.4137 519.32 43.8418 519.32 51.0293C519.32 54.8477 518.235 58.2355 516.063 61.1929C513.892 64.1128 510.935 66.3776 507.191 67.9873C511.609 69.2227 515.09 71.5811 517.636 75.0625C520.219 78.5065 521.51 82.6243 521.51 87.416C521.51 94.7533 519.133 100.518 514.379 104.711C509.625 108.904 502.905 111 494.22 111H465.863ZM476.645 72.7603V102.184H494.445C499.461 102.184 503.41 100.893 506.293 98.3096C509.213 95.6891 510.673 92.0954 510.673 87.5283C510.673 77.6829 505.32 72.7603 494.613 72.7603H476.645ZM476.645 64.1128H492.929C497.646 64.1128 501.408 62.9336 504.215 60.5752C507.06 58.2168 508.483 55.0161 508.483 50.9731C508.483 46.481 507.173 43.2241 504.552 41.2026C501.932 39.1437 497.945 38.1143 492.592 38.1143H476.645V64.1128ZM536.11 105.553C536.11 103.756 536.634 102.259 537.682 101.061C538.768 99.8631 540.377 99.2642 542.511 99.2642C544.645 99.2642 546.255 99.8631 547.34 101.061C548.463 102.259 549.025 103.756 549.025 105.553C549.025 107.275 548.463 108.716 547.34 109.877C546.255 111.037 544.645 111.618 542.511 111.618C540.377 111.618 538.768 111.037 537.682 109.877C536.634 108.716 536.11 107.275 536.11 105.553ZM617.531 81.2954C617.531 90.5418 615.416 97.9914 611.186 103.644C606.955 109.297 601.228 112.123 594.003 112.123C586.628 112.123 580.826 109.783 576.596 105.104V134.359H566.208V50.2432H575.697L576.203 56.9814C580.433 51.7406 586.31 49.1201 593.834 49.1201C601.134 49.1201 606.899 51.8716 611.129 57.3745C615.397 62.8774 617.531 70.5329 617.531 80.3408V81.2954ZM607.143 80.1162C607.143 73.2656 605.683 67.8563 602.763 63.8882C599.843 59.9201 595.837 57.936 590.746 57.936C584.457 57.936 579.74 60.7249 576.596 66.3027V95.3335C579.703 100.874 584.457 103.644 590.858 103.644C595.837 103.644 599.787 101.679 602.707 97.748C605.664 93.7799 607.143 87.9027 607.143 80.1162ZM649.987 95.7827L664.137 50.2432H675.255L650.829 120.377C647.048 130.485 641.04 135.539 632.804 135.539L630.839 135.37L626.964 134.64V126.217L629.772 126.442C633.291 126.442 636.024 125.731 637.97 124.308C639.954 122.886 641.583 120.284 642.855 116.503L645.158 110.326L623.483 50.2432H634.826L649.987 95.7827Z" fill="white"/>
<path d="M164.774 111H161.774V114H164.774V111ZM164.774 29.2422V26.2422H161.774V29.2422H164.774ZM211.493 34.7451L209.586 37.0609L209.596 37.0687L211.493 34.7451ZM214.975 61.1929L217.382 62.983L217.387 62.9757L217.393 62.9683L214.975 61.1929ZM206.103 67.9873L204.917 65.2313L197.111 68.5879L205.295 70.8765L206.103 67.9873ZM216.547 75.0625L214.125 76.8332L214.136 76.8479L214.147 76.8625L216.547 75.0625ZM213.29 104.711L211.306 102.461L213.29 104.711ZM175.556 72.7603V69.7603H172.556V72.7603H175.556ZM175.556 102.184H172.556V105.184H175.556V102.184ZM205.204 98.3096L207.206 100.544L207.208 100.542L205.204 98.3096ZM175.556 64.1128H172.556V67.1128H175.556V64.1128ZM203.126 60.5752L201.212 58.2656L201.204 58.2718L201.197 58.2781L203.126 60.5752ZM203.463 41.2026L201.61 43.5616L201.62 43.5698L201.631 43.578L203.463 41.2026ZM175.556 38.1143V35.1143H172.556V38.1143H175.556ZM167.774 111V29.2422H161.774V111H167.774ZM164.774 32.2422H191.503V26.2422H164.774V32.2422ZM191.503 32.2422C200.035 32.2422 205.891 34.0177 209.586 37.0609L213.4 32.4293C208.186 28.1353 200.715 26.2422 191.503 26.2422V32.2422ZM209.596 37.0687C213.226 40.0334 215.231 44.5064 215.231 51.0293H221.231C221.231 43.1771 218.745 36.7941 213.391 32.4215L209.596 37.0687ZM215.231 51.0293C215.231 54.2368 214.333 56.9969 212.556 59.4175L217.393 62.9683C219.958 59.4741 221.231 55.4585 221.231 51.0293H215.231ZM212.567 59.4028C210.748 61.8496 208.235 63.8047 204.917 65.2313L207.288 70.7433C211.457 68.9505 214.859 66.376 217.382 62.983L212.567 59.4028ZM205.295 70.8765C209.108 71.9429 212.003 73.9309 214.125 76.8332L218.969 73.2918C216 69.2312 211.932 66.5024 206.911 65.0982L205.295 70.8765ZM214.147 76.8625C216.297 79.7287 217.421 83.1963 217.421 87.416H223.421C223.421 82.0524 221.963 77.2843 218.947 73.2625L214.147 76.8625ZM217.421 87.416C217.421 94.0421 215.31 98.9298 211.306 102.461L215.274 106.961C220.779 102.107 223.421 95.4645 223.421 87.416H217.421ZM211.306 102.461C207.274 106.017 201.357 108 193.131 108V114C202.275 114 209.798 111.791 215.274 106.961L211.306 102.461ZM193.131 108H164.774V114H193.131V108ZM172.556 72.7603V102.184H178.556V72.7603H172.556ZM175.556 105.184H193.356V99.1841H175.556V105.184ZM193.356 105.184C198.887 105.184 203.626 103.752 207.206 100.544L203.202 96.0754C201.017 98.0336 197.858 99.1841 193.356 99.1841V105.184ZM207.208 100.542C210.868 97.2577 212.584 92.7936 212.584 87.5283H206.584C206.584 91.3971 205.38 94.1206 203.2 96.0768L207.208 100.542ZM212.584 87.5283C212.584 82.0755 211.09 77.4535 207.6 74.244C204.157 71.0783 199.281 69.7603 193.524 69.7603V75.7603C198.475 75.7603 201.628 76.9036 203.538 78.6605C205.401 80.3737 206.584 83.1357 206.584 87.5283H212.584ZM193.524 69.7603H175.556V75.7603H193.524V69.7603ZM175.556 67.1128H191.84V61.1128H175.556V67.1128ZM191.84 67.1128C197.056 67.1128 201.569 65.8017 205.056 62.8723L201.197 58.2781C199.069 60.0655 196.057 61.1128 191.84 61.1128V67.1128ZM205.041 62.8848C208.644 59.8983 210.394 55.8138 210.394 50.9731H204.394C204.394 54.2184 203.299 56.5353 201.212 58.2656L205.041 62.8848ZM210.394 50.9731C210.394 45.9073 208.895 41.6038 205.296 38.8273L201.631 43.578C203.273 44.8445 204.394 47.0547 204.394 50.9731H210.394ZM205.317 38.8437C201.932 36.1841 197.149 35.1143 191.503 35.1143V41.1143C196.563 41.1143 199.754 42.1033 201.61 43.5616L205.317 38.8437ZM191.503 35.1143H175.556V41.1143H191.503V35.1143ZM172.556 38.1143V64.1128H178.556V38.1143H172.556ZM272.306 111L269.623 112.342L270.452 114H272.306V111ZM270.846 104.599L273.824 104.235L273.06 97.973L268.685 102.518L270.846 104.599ZM238.783 107.069L236.786 109.308L236.798 109.318L236.809 109.328L238.783 107.069ZM240.243 79.4424L242.007 81.8694L242.01 81.867L240.243 79.4424ZM270.678 74.1641V77.1641H273.678V74.1641H270.678ZM267.421 60.7437L265.3 62.865L265.309 62.8742L265.318 62.8833L267.421 60.7437ZM244.735 67.0889V70.0889H247.735V67.0889H244.735ZM234.291 67.0889H231.291V70.0889H234.291V67.0889ZM237.492 58.3291L235.107 56.5091L235.103 56.5139L237.492 58.3291ZM246.251 51.5908L245.033 48.8494L245.023 48.854L246.251 51.5908ZM274.889 54.3984L272.899 56.643L272.905 56.6483L272.911 56.6535L274.889 54.3984ZM281.066 68.8296H284.066V68.793L284.065 68.7564L281.066 68.8296ZM283.2 110.102H286.2V109.482L285.954 108.912L283.2 110.102ZM283.2 111V114H286.2V111H283.2ZM270.678 93.9858L273.376 95.2974L273.678 94.6764V93.9858H270.678ZM270.678 81.52H273.678V78.52H270.678V81.52ZM274.989 109.658C274.643 108.966 274.197 107.294 273.824 104.235L267.868 104.962C268.244 108.043 268.771 110.638 269.623 112.342L274.989 109.658ZM268.685 102.518C264.397 106.973 259.402 109.123 253.551 109.123V115.123C261.103 115.123 267.638 112.257 273.007 106.679L268.685 102.518ZM253.551 109.123C248.157 109.123 243.976 107.622 240.757 104.81L236.809 109.328C241.302 113.255 246.966 115.123 253.551 115.123V109.123ZM240.78 104.831C237.612 102.004 236.056 98.5192 236.056 94.1543H230.056C230.056 100.196 232.317 105.321 236.786 109.308L240.78 104.831ZM236.056 94.1543C236.056 88.7115 238.052 84.7428 242.007 81.8694L238.48 77.0154C232.851 81.1048 230.056 86.9441 230.056 94.1543H236.056ZM242.01 81.867C246.139 78.8585 252.203 77.1641 260.57 77.1641V71.1641C251.492 71.1641 244.006 72.9885 238.476 77.0178L242.01 81.867ZM260.57 77.1641H270.678V71.1641H260.57V77.1641ZM273.678 74.1641V69.3911H267.678V74.1641H273.678ZM273.678 69.3911C273.678 65.1221 272.378 61.4089 269.524 58.604L265.318 62.8833C266.806 64.346 267.678 66.3978 267.678 69.3911H273.678ZM269.542 58.6223C266.623 55.7035 262.538 54.4868 257.819 54.4868V60.4868C261.56 60.4868 263.876 61.4414 265.3 62.865L269.542 58.6223ZM257.819 54.4868C253.589 54.4868 249.82 55.5641 246.703 57.8901L250.292 62.6987C252.191 61.2813 254.637 60.4868 257.819 60.4868V54.4868ZM246.703 57.8901C243.589 60.2144 241.735 63.3089 241.735 67.0889H247.735C247.735 65.5531 248.39 64.118 250.292 62.6987L246.703 57.8901ZM244.735 64.0889H234.291V70.0889H244.735V64.0889ZM237.291 67.0889C237.291 64.8154 238.076 62.5185 239.88 60.1444L235.103 56.5139C232.64 59.755 231.291 63.2979 231.291 67.0889H237.291ZM239.877 60.1491C241.709 57.7482 244.21 55.7959 247.48 54.3276L245.023 48.854C240.956 50.68 237.617 53.2199 235.107 56.5091L239.877 60.1491ZM247.47 54.3323C250.759 52.8703 254.401 52.1201 258.437 52.1201V46.1201C253.637 46.1201 249.156 47.017 245.033 48.8494L247.47 54.3323ZM258.437 52.1201C264.942 52.1201 269.635 53.7489 272.899 56.643L276.88 52.1539C272.207 48.0102 265.931 46.1201 258.437 46.1201V52.1201ZM272.911 56.6535C276.144 59.4905 277.934 63.4515 278.067 68.9027L284.065 68.7564C283.899 61.9291 281.57 56.2693 276.868 52.1433L272.911 56.6535ZM278.066 68.8296V96.7935H284.066V68.8296H278.066ZM278.066 96.7935C278.066 102.577 278.796 107.471 280.446 111.291L285.954 108.912C284.758 106.143 284.066 102.165 284.066 96.7935H278.066ZM280.2 110.102V111H286.2V110.102H280.2ZM283.2 108H272.306V114H283.2V108ZM255.067 106.083C258.869 106.083 262.473 105.092 265.832 103.154L262.833 97.9571C260.353 99.3883 257.779 100.083 255.067 100.083V106.083ZM265.832 103.154C269.204 101.209 271.772 98.5977 273.376 95.2974L267.98 92.6743C266.963 94.7646 265.301 96.5333 262.833 97.9571L265.832 103.154ZM273.678 93.9858V81.52H267.678V93.9858H273.678ZM270.678 78.52H262.536V84.52H270.678V78.52ZM262.536 78.52C255.977 78.52 250.566 79.4623 246.701 81.7245C242.588 84.1318 240.444 87.9177 240.444 92.6943H246.444C246.444 90.0215 247.481 88.2201 249.732 86.9027C252.231 85.4401 256.366 84.52 262.536 84.52V78.52ZM240.444 92.6943C240.444 96.6906 241.816 100.132 244.765 102.623L248.637 98.0394C247.243 96.8618 246.444 95.2117 246.444 92.6943H240.444ZM244.765 102.623C247.58 105.001 251.099 106.083 255.067 106.083V100.083C252.223 100.083 250.164 99.3296 248.637 98.0394L244.765 102.623ZM307.177 50.2432L310.174 50.1109L310.047 47.2432H307.177V50.2432ZM307.514 57.8799L304.517 58.0121L304.87 66.0268L309.862 59.7466L307.514 57.8799ZM345.136 70.8511H348.136V70.8394L348.136 70.8278L345.136 70.8511ZM345.136 111V114H348.136V111H345.136ZM334.748 111H331.748V114H334.748V111ZM334.748 70.7949H337.748V70.7821L337.747 70.7693L334.748 70.7949ZM331.715 61.0806L329.517 63.1219L329.527 63.1324L329.536 63.1427L331.715 61.0806ZM307.738 67.7065L305.041 66.3926L304.738 67.0146V67.7065H307.738ZM307.738 111V114H310.738V111H307.738ZM297.35 111H294.35V114H297.35V111ZM297.35 50.2432V47.2432H294.35V50.2432H297.35ZM304.18 50.3754L304.517 58.0121L310.511 57.7477L310.174 50.1109L304.18 50.3754ZM309.862 59.7466C313.933 54.6258 319.131 52.1201 325.707 52.1201V46.1201C317.309 46.1201 310.379 49.4543 305.165 56.0132L309.862 59.7466ZM325.707 52.1201C331.563 52.1201 335.457 53.7552 337.958 56.5524C340.519 59.417 342.083 64.012 342.136 70.8743L348.136 70.8278C348.077 63.2029 346.346 56.9323 342.431 52.5533C338.455 48.1069 332.691 46.1201 325.707 46.1201V52.1201ZM342.136 70.8511V111H348.136V70.8511H342.136ZM345.136 108H334.748V114H345.136V108ZM337.748 111V70.7949H331.748V111H337.748ZM337.747 70.7693C337.707 66.013 336.613 61.8912 333.894 59.0184L329.536 63.1427C330.786 64.4627 331.713 66.817 331.748 70.8206L337.747 70.7693ZM333.914 59.0392C331.183 56.0987 327.17 54.936 322.562 54.936V60.936C326.266 60.936 328.354 61.8697 329.517 63.1219L333.914 59.0392ZM322.562 54.936C318.627 54.936 315.054 55.9969 311.96 58.1804L315.42 63.0823C317.418 61.6721 319.76 60.936 322.562 60.936V54.936ZM311.96 58.1804C308.984 60.2814 306.675 63.0383 305.041 66.3926L310.435 69.0205C311.646 66.5349 313.306 64.5751 315.42 63.0823L311.96 58.1804ZM304.738 67.7065V111H310.738V67.7065H304.738ZM307.738 108H297.35V114H307.738V108ZM300.35 111V50.2432H294.35V111H300.35ZM297.35 53.2432H307.177V47.2432H297.35V53.2432ZM372.089 111V114H375.089V111H372.089ZM361.701 111H358.701V114H361.701V111ZM361.701 50.2432V47.2432H358.701V50.2432H361.701ZM372.089 50.2432H375.089V47.2432H372.089V50.2432ZM362.375 29.8599L360.148 27.849L360.13 27.8691L360.112 27.8895L362.375 29.8599ZM362.375 38.3389L360.145 40.3458L360.163 40.366L360.181 40.3858L362.375 38.3389ZM372.089 108H361.701V114H372.089V108ZM364.701 111V50.2432H358.701V111H364.701ZM361.701 53.2432H372.089V47.2432H361.701V53.2432ZM369.089 50.2432V111H375.089V50.2432H369.089ZM363.858 34.1274C363.858 33.0933 364.148 32.3913 364.637 31.8302L360.112 27.8895C358.579 29.6494 357.858 31.7924 357.858 34.1274H363.858ZM364.601 31.8707C364.925 31.5122 365.542 31.1191 366.979 31.1191V25.1191C364.373 25.1191 361.921 25.8866 360.148 27.849L364.601 31.8707ZM366.979 31.1191C368.416 31.1191 369.033 31.5122 369.357 31.8707L373.81 27.849C372.037 25.8866 369.585 25.1191 366.979 25.1191V31.1191ZM369.357 31.8707C369.867 32.4352 370.156 33.1234 370.156 34.1274H376.156C376.156 31.7624 375.396 29.6055 373.81 27.849L369.357 31.8707ZM370.156 34.1274C370.156 35.132 369.868 35.7801 369.39 36.2919L373.777 40.3858C375.395 38.6515 376.156 36.492 376.156 34.1274H370.156ZM369.39 36.2919C369.074 36.6312 368.445 37.0234 366.979 37.0234V43.0234C369.556 43.0234 371.997 42.2926 373.777 40.3858L369.39 36.2919ZM366.979 37.0234C365.513 37.0234 364.884 36.6312 364.568 36.2919L360.181 40.3858C361.961 42.2926 364.402 43.0234 366.979 43.0234V37.0234ZM364.604 36.332C364.148 35.8244 363.858 35.1626 363.858 34.1274H357.858C357.858 36.4614 358.58 38.6072 360.145 40.3458L364.604 36.332ZM390.395 111H387.395V114H390.395V111ZM390.395 29.2422V26.2422H387.395V29.2422H390.395ZM444.975 47.3794L442.302 48.7417L442.305 48.7485L442.309 48.7553L444.975 47.3794ZM449.523 67.3696H452.523V67.3622L452.523 67.3547L449.523 67.3696ZM445.031 92.8628L442.365 91.4869L442.361 91.4937L442.358 91.5005L445.031 92.8628ZM432.284 106.227L430.817 103.61L430.809 103.615L432.284 106.227ZM413.024 111V114H413.039L413.055 114L413.024 111ZM401.176 38.1143V35.1143H398.176V38.1143H401.176ZM401.176 102.184H398.176V105.184H401.176V102.184ZM431.891 94.4351L429.66 92.4299L429.652 92.4389L431.891 94.4351ZM432.284 45.9756L429.988 47.9059L429.995 47.9149L430.003 47.9238L432.284 45.9756ZM413.754 38.1143L413.782 35.1144L413.768 35.1143H413.754V38.1143ZM393.395 111V29.2422H387.395V111H393.395ZM390.395 32.2422H413.473V26.2422H390.395V32.2422ZM413.473 32.2422C420.129 32.2422 425.89 33.7088 430.844 36.5593L433.836 31.3587C427.86 27.9201 421.042 26.2422 413.473 26.2422V32.2422ZM430.844 36.5593C435.789 39.404 439.599 43.4393 442.302 48.7417L447.647 46.0171C444.435 39.7147 439.823 34.803 433.836 31.3587L430.844 36.5593ZM442.309 48.7553C445.055 54.0769 446.488 60.2614 446.523 67.3846L452.523 67.3547C452.483 59.429 450.883 52.2868 447.64 46.0035L442.309 48.7553ZM446.523 67.3696V72.5918H452.523V67.3696H446.523ZM446.523 72.5918C446.523 79.911 445.104 86.1805 442.365 91.4869L447.697 94.2387C450.947 87.9403 452.523 80.6957 452.523 72.5918H446.523ZM442.358 91.5005C439.662 96.7891 435.827 100.801 430.817 103.61L433.752 108.844C439.823 105.439 444.484 100.541 447.704 94.2251L442.358 91.5005ZM430.809 103.615C425.814 106.435 419.906 107.93 412.993 108L413.055 114C420.816 113.921 427.749 112.233 433.759 108.839L430.809 103.615ZM413.024 108H390.395V114H413.024V108ZM398.176 38.1143V102.184H404.176V38.1143H398.176ZM401.176 105.184H412.519V99.1841H401.176V105.184ZM412.519 105.184C421.497 105.184 428.843 102.364 434.131 96.4312L429.652 92.4389C425.73 96.8386 420.161 99.1841 412.519 99.1841V105.184ZM434.123 96.4402C439.418 90.5464 441.854 82.3746 441.854 72.3672H435.854C435.854 81.4516 433.648 87.9917 429.66 92.43L434.123 96.4402ZM441.854 72.3672V67.5942H435.854V72.3672H441.854ZM441.854 67.5942C441.854 57.8646 439.558 49.8733 434.565 44.0273L430.003 47.9238C433.77 52.3351 435.854 58.7562 435.854 67.5942H441.854ZM434.581 44.0452C429.568 38.0817 422.488 35.1958 413.782 35.1144L413.726 41.1141C421.041 41.1825 426.316 43.5374 429.988 47.9059L434.581 44.0452ZM413.754 35.1143H401.176V41.1143H413.754V35.1143ZM465.863 111H462.863V114H465.863V111ZM465.863 29.2422V26.2422H462.863V29.2422H465.863ZM512.582 34.7451L510.675 37.0609L510.684 37.0687L512.582 34.7451ZM516.063 61.1929L518.471 62.983L518.476 62.9757L518.482 62.9683L516.063 61.1929ZM507.191 67.9873L506.006 65.2313L498.2 68.5879L506.383 70.8765L507.191 67.9873ZM517.636 75.0625L515.214 76.8332L515.225 76.8479L515.236 76.8625L517.636 75.0625ZM514.379 104.711L512.395 102.461L514.379 104.711ZM476.645 72.7603V69.7603H473.645V72.7603H476.645ZM476.645 102.184H473.645V105.184H476.645V102.184ZM506.293 98.3096L508.295 100.544L508.297 100.542L506.293 98.3096ZM476.645 64.1128H473.645V67.1128H476.645V64.1128ZM504.215 60.5752L502.301 58.2656L502.293 58.2718L502.286 58.2781L504.215 60.5752ZM504.552 41.2026L502.699 43.5616L502.709 43.5698L502.72 43.578L504.552 41.2026ZM476.645 38.1143V35.1143H473.645V38.1143H476.645ZM468.863 111V29.2422H462.863V111H468.863ZM465.863 32.2422H492.592V26.2422H465.863V32.2422ZM492.592 32.2422C501.124 32.2422 506.98 34.0177 510.675 37.0609L514.489 32.4293C509.275 28.1353 501.804 26.2422 492.592 26.2422V32.2422ZM510.684 37.0687C514.315 40.0334 516.32 44.5064 516.32 51.0293H522.32C522.32 43.1771 519.834 36.7941 514.48 32.4215L510.684 37.0687ZM516.32 51.0293C516.32 54.2368 515.422 56.9969 513.645 59.4175L518.482 62.9683C521.047 59.4741 522.32 55.4585 522.32 51.0293H516.32ZM513.656 59.4028C511.837 61.8496 509.324 63.8047 506.006 65.2313L508.376 70.7433C512.546 68.9505 515.948 66.376 518.471 62.983L513.656 59.4028ZM506.383 70.8765C510.197 71.9429 513.092 73.9309 515.214 76.8332L520.057 73.2918C517.088 69.2312 513.021 66.5024 507.999 65.0982L506.383 70.8765ZM515.236 76.8625C517.385 79.7287 518.51 83.1963 518.51 87.416H524.51C524.51 82.0524 523.052 77.2843 520.036 73.2625L515.236 76.8625ZM518.51 87.416C518.51 94.0421 516.399 98.9298 512.395 102.461L516.363 106.961C521.868 102.107 524.51 95.4645 524.51 87.416H518.51ZM512.395 102.461C508.363 106.017 502.446 108 494.22 108V114C503.364 114 510.887 111.791 516.363 106.961L512.395 102.461ZM494.22 108H465.863V114H494.22V108ZM473.645 72.7603V102.184H479.645V72.7603H473.645ZM476.645 105.184H494.445V99.1841H476.645V105.184ZM494.445 105.184C499.975 105.184 504.715 103.752 508.295 100.544L504.291 96.0754C502.106 98.0336 498.947 99.1841 494.445 99.1841V105.184ZM508.297 100.542C511.957 97.2577 513.673 92.7936 513.673 87.5283H507.673C507.673 91.3971 506.469 94.1206 504.289 96.0768L508.297 100.542ZM513.673 87.5283C513.673 82.0755 512.179 77.4535 508.689 74.244C505.246 71.0783 500.369 69.7603 494.613 69.7603V75.7603C499.563 75.7603 502.717 76.9036 504.627 78.6605C506.49 80.3737 507.673 83.1357 507.673 87.5283H513.673ZM494.613 69.7603H476.645V75.7603H494.613V69.7603ZM476.645 67.1128H492.929V61.1128H476.645V67.1128ZM492.929 67.1128C498.145 67.1128 502.658 65.8017 506.145 62.8723L502.286 58.2781C500.158 60.0655 497.146 61.1128 492.929 61.1128V67.1128ZM506.13 62.8848C509.733 59.8983 511.483 55.8138 511.483 50.9731H505.483C505.483 54.2184 504.388 56.5353 502.301 58.2656L506.13 62.8848ZM511.483 50.9731C511.483 45.9073 509.984 41.6038 506.385 38.8273L502.72 43.578C504.362 44.8445 505.483 47.0547 505.483 50.9731H511.483ZM506.406 38.8437C503.021 36.1841 498.238 35.1143 492.592 35.1143V41.1143C497.652 41.1143 500.843 42.1033 502.699 43.5616L506.406 38.8437ZM492.592 35.1143H476.645V41.1143H492.592V35.1143ZM473.645 38.1143V64.1128H479.645V38.1143H473.645ZM537.682 101.061L535.459 99.0465L535.442 99.0658L535.424 99.0855L537.682 101.061ZM547.34 101.061L545.117 103.076L545.134 103.094L545.152 103.113L547.34 101.061ZM547.34 109.877L545.185 107.791L545.167 107.809L545.15 107.827L547.34 109.877ZM537.682 109.877L535.456 111.888L535.473 111.907L535.491 111.926L537.682 109.877ZM539.11 105.553C539.11 104.383 539.432 103.617 539.94 103.037L535.424 99.0855C533.836 100.901 533.11 103.13 533.11 105.553H539.11ZM539.905 103.076C540.255 102.689 540.939 102.264 542.511 102.264V96.2642C539.816 96.2642 537.28 97.0369 535.459 99.0465L539.905 103.076ZM542.511 102.264C544.083 102.264 544.767 102.689 545.117 103.076L549.563 99.0465C547.742 97.0369 545.207 96.2642 542.511 96.2642V102.264ZM545.152 103.113C545.702 103.7 546.025 104.44 546.025 105.553H552.025C552.025 103.072 551.224 100.818 549.529 99.0092L545.152 103.113ZM546.025 105.553C546.025 106.554 545.728 107.229 545.185 107.791L549.496 111.963C551.199 110.204 552.025 107.997 552.025 105.553H546.025ZM545.15 107.827C544.806 108.195 544.111 108.618 542.511 108.618V114.618C545.179 114.618 547.703 113.88 549.531 111.926L545.15 107.827ZM542.511 108.618C540.911 108.618 540.216 108.195 539.873 107.827L535.491 111.926C537.319 113.88 539.844 114.618 542.511 114.618V108.618ZM539.908 107.866C539.41 107.314 539.11 106.614 539.11 105.553H533.11C533.11 107.937 533.858 110.118 535.456 111.888L539.908 107.866ZM576.596 105.104L578.821 103.092L573.596 97.3118V105.104H576.596ZM576.596 134.359V137.359H579.596V134.359H576.596ZM566.208 134.359H563.208V137.359H566.208V134.359ZM566.208 50.2432V47.2432H563.208V50.2432H566.208ZM575.697 50.2432L578.689 50.0188L578.481 47.2432H575.697V50.2432ZM576.203 56.9814L573.211 57.2058L573.778 64.7622L578.537 58.8657L576.203 56.9814ZM611.129 57.3745L608.751 59.2029L608.759 59.213L611.129 57.3745ZM576.596 66.3027L573.982 64.8295L573.596 65.5153V66.3027H576.596ZM576.596 95.3335H573.596V96.1173L573.979 96.8009L576.596 95.3335ZM602.707 97.748L600.301 95.9553L600.298 95.9591L602.707 97.748ZM614.531 81.2954C614.531 90.0943 612.52 96.8531 608.784 101.847L613.587 105.441C618.311 99.1297 620.531 90.9894 620.531 81.2954H614.531ZM608.784 101.847C605.135 106.722 600.308 109.123 594.003 109.123V115.123C602.147 115.123 608.775 111.872 613.587 105.441L608.784 101.847ZM594.003 109.123C587.319 109.123 582.385 107.034 578.821 103.092L574.37 107.116C579.267 112.532 585.937 115.123 594.003 115.123V109.123ZM573.596 105.104V134.359H579.596V105.104H573.596ZM576.596 131.359H566.208V137.359H576.596V131.359ZM569.208 134.359V50.2432H563.208V134.359H569.208ZM566.208 53.2432H575.697V47.2432H566.208V53.2432ZM572.706 50.4675L573.211 57.2058L579.194 56.7571L578.689 50.0188L572.706 50.4675ZM578.537 58.8657C582.126 54.4191 587.096 52.1201 593.834 52.1201V46.1201C585.524 46.1201 578.739 49.062 573.868 55.0972L578.537 58.8657ZM593.834 52.1201C600.259 52.1201 605.122 54.482 608.751 59.2029L613.508 55.5462C608.677 49.2612 602.01 46.1201 593.834 46.1201V52.1201ZM608.759 59.213C612.481 64.0127 614.531 70.9328 614.531 80.3408H620.531C620.531 70.133 618.313 61.7422 613.5 55.536L608.759 59.213ZM614.531 80.3408V81.2954H620.531V80.3408H614.531ZM610.143 80.1162C610.143 72.8697 608.601 66.7603 605.179 62.1101L600.346 65.6662C602.764 68.9523 604.143 73.6615 604.143 80.1162H610.143ZM605.179 62.1101C601.672 57.344 596.754 54.936 590.746 54.936V60.936C594.921 60.936 598.014 62.4962 600.346 65.6662L605.179 62.1101ZM590.746 54.936C583.35 54.936 577.647 58.3297 573.982 64.8295L579.209 67.776C581.834 63.1202 585.564 60.936 590.746 60.936V54.936ZM573.596 66.3027V95.3335H579.596V66.3027H573.596ZM573.979 96.8009C575.753 99.9648 578.074 102.465 580.981 104.158C583.887 105.852 587.215 106.644 590.858 106.644V100.644C588.101 100.644 585.85 100.051 584.002 98.9743C582.155 97.898 580.545 96.2425 579.212 93.8661L573.979 96.8009ZM590.858 106.644C596.768 106.644 601.618 104.245 605.115 99.537L600.298 95.9591C597.956 99.1128 594.907 100.644 590.858 100.644V106.644ZM605.112 99.5408C608.62 94.8334 610.143 88.2036 610.143 80.1162H604.143C604.143 87.6018 602.707 92.7265 600.301 95.9553L605.112 99.5408ZM649.987 95.7827L647.14 96.7303L650.085 105.576L652.852 96.6729L649.987 95.7827ZM664.137 50.2432V47.2432H661.928L661.272 49.353L664.137 50.2432ZM675.255 50.2432L678.088 51.2299L679.477 47.2432H675.255V50.2432ZM650.829 120.377L653.639 121.429L653.651 121.396L653.662 121.364L650.829 120.377ZM632.804 135.539L632.548 138.528L632.676 138.539H632.804V135.539ZM630.839 135.37L630.283 138.318L630.432 138.346L630.583 138.359L630.839 135.37ZM626.964 134.64H623.964V137.128L626.409 137.588L626.964 134.64ZM626.964 126.217L627.204 123.227L623.964 122.968V126.217H626.964ZM629.772 126.442L629.533 129.432L629.652 129.442H629.772V126.442ZM637.97 124.308L636.222 121.87L636.211 121.878L636.2 121.886L637.97 124.308ZM642.855 116.503L640.044 115.455L640.028 115.5L640.012 115.546L642.855 116.503ZM645.158 110.326L647.969 111.374L648.353 110.343L647.98 109.308L645.158 110.326ZM623.483 50.2432V47.2432H619.211L620.661 51.2612L623.483 50.2432ZM634.826 50.2432L637.672 49.2955L636.989 47.2432H634.826V50.2432ZM652.852 96.6729L667.002 51.1334L661.272 49.353L647.122 94.8925L652.852 96.6729ZM664.137 53.2432H675.255V47.2432H664.137V53.2432ZM672.422 49.2565L647.996 119.391L653.662 121.364L678.088 51.2299L672.422 49.2565ZM648.019 119.326C646.245 124.069 644.044 127.359 641.556 129.452C639.121 131.501 636.253 132.539 632.804 132.539V138.539C637.591 138.539 641.845 137.049 645.418 134.044C648.938 131.083 651.632 126.793 653.639 121.429L648.019 119.326ZM633.06 132.55L631.095 132.381L630.583 138.359L632.548 138.528L633.06 132.55ZM631.394 132.422L627.52 131.692L626.409 137.588L630.283 138.318L631.394 132.422ZM629.964 134.64V126.217H623.964V134.64H629.964ZM626.725 129.208L629.533 129.432L630.011 123.451L627.204 123.227L626.725 129.208ZM629.772 129.442C633.647 129.442 637.092 128.665 639.74 126.73L636.2 121.886C634.955 122.796 632.935 123.442 629.772 123.442V129.442ZM639.718 126.746C642.446 124.79 644.341 121.492 645.699 117.46L640.012 115.546C638.824 119.076 637.462 120.981 636.222 121.87L639.718 126.746ZM645.667 117.551L647.969 111.374L642.347 109.278L640.044 115.455L645.667 117.551ZM647.98 109.308L626.305 49.2251L620.661 51.2612L642.336 111.344L647.98 109.308ZM623.483 53.2432H634.826V47.2432H623.483V53.2432ZM631.979 51.1908L647.14 96.7303L652.833 94.8351L637.672 49.2955L631.979 51.1908Z" fill="url(#paint0_linear)"/>
<defs>
<linearGradient id="paint0_linear" x1="416" y1="-71.5" x2="392.5" y2="79" gradientUnits="userSpaceOnUse">
<stop stop-color="#FB9F1C"/>
<stop offset="0.9999" stop-color="#FB9F1C"/>
<stop offset="1" stop-color="#15648D"/>
</linearGradient>
</defs>
</svg>
