<svg width="150" height="150" viewBox="0 0 150 150" fill="none" xmlns="http://www.w3.org/2000/svg">
  <circle cx="75" cy="75" r="75" fill="#FA9D1D"/>
  <circle cx="75.5" cy="75.5" r="62.5" fill="#76809A"/>
  <circle cx="75" cy="75" r="50" fill="#373E66"/>
  <path fill-rule="evenodd" clip-rule="evenodd" d="M41 111.661V97.2361C51.7427 95.7828 63.1618 95 75 95C86.8382 95 98.2573 95.7828 109 97.2361V111.661C100.078 119.939 88.1303 125 75 125C61.8697 125 49.9216 119.939 41 111.661Z" fill="#00669B"/>
  <path fill-rule="evenodd" clip-rule="evenodd" d="M75.5439 92.7875C85.2304 83.9996 91.3 71.3955 91.3 57.3938C91.3 43.392 85.2304 30.7879 75.5439 22C65.8574 30.7879 59.7878 43.392 59.7878 57.3938C59.7878 71.3955 65.8574 83.9996 75.5439 92.7875Z" fill="#FB9F1C"/>
  <path fill-rule="evenodd" clip-rule="evenodd" d="M74.7561 92.7875C84.4426 83.9996 90.5122 71.3955 90.5122 57.3938C90.5122 43.392 84.4426 30.7879 74.7561 22C65.0696 30.7879 59 43.392 59 57.3938C59 71.3955 65.0696 83.9996 74.7561 92.7875Z" fill="#FB9F1C"/>
  <path fill-rule="evenodd" clip-rule="evenodd" d="M75.15 93.0276C81.2041 87.5351 84.9976 79.6576 84.9976 70.9065C84.9976 62.1553 81.2041 54.2778 75.15 48.7854C69.0959 54.2778 65.3024 62.1553 65.3024 70.9065C65.3024 79.6576 69.0959 87.5351 75.15 93.0276Z" fill="#FCED1F"/>
</svg>
