<svg width="708" height="155" viewBox="0 0 708 155" fill="none" xmlns="http://www.w3.org/2000/svg">
<circle cx="75" cy="75" r="75" fill="#FA9D1D"/>
<circle cx="75.5" cy="75.5" r="62.5" fill="#76809A"/>
<circle cx="75" cy="75" r="50" fill="#373E66"/>
<path fill-rule="evenodd" clip-rule="evenodd" d="M41 111.661V97.2361C51.7427 95.7828 63.1618 95 75 95C86.8382 95 98.2573 95.7828 109 97.2361V111.661C100.078 119.939 88.1303 125 75 125C61.8697 125 49.9216 119.939 41 111.661Z" fill="#00669B"/>
<path fill-rule="evenodd" clip-rule="evenodd" d="M75.5439 92.7875C85.2304 83.9996 91.3 71.3955 91.3 57.3938C91.3 43.392 85.2304 30.7879 75.5439 22C65.8574 30.7879 59.7878 43.392 59.7878 57.3938C59.7878 71.3955 65.8574 83.9996 75.5439 92.7875Z" fill="#FB9F1C"/>
<path fill-rule="evenodd" clip-rule="evenodd" d="M74.7561 92.7875C84.4426 83.9996 90.5122 71.3955 90.5122 57.3938C90.5122 43.392 84.4426 30.7879 74.7561 22C65.0696 30.7879 59 43.392 59 57.3938C59 71.3955 65.0696 83.9996 74.7561 92.7875Z" fill="#FB9F1C"/>
<path fill-rule="evenodd" clip-rule="evenodd" d="M75.15 93.0276C81.2041 87.5351 84.9976 79.6576 84.9976 70.9065C84.9976 62.1553 81.2041 54.2778 75.15 48.7854C69.0959 54.2778 65.3024 62.1553 65.3024 70.9065C65.3024 79.6576 69.0959 87.5351 75.15 93.0276Z" fill="#FCED1F"/>
<path d="M226.935 81.2954C226.935 90.5793 224.801 98.0475 220.534 103.7C216.266 109.315 210.539 112.123 203.351 112.123C195.677 112.123 189.743 109.409 185.551 103.981L185.045 111H175.5V24.75H185.888V56.9253C190.08 51.7218 195.864 49.1201 203.239 49.1201C210.613 49.1201 216.397 51.909 220.59 57.4868C224.82 63.0646 226.935 70.7013 226.935 80.397V81.2954ZM216.547 80.1162C216.547 73.041 215.181 67.5755 212.448 63.7197C209.715 59.8639 205.784 57.936 200.656 57.936C193.805 57.936 188.882 61.118 185.888 67.4819V93.7612C189.07 100.125 194.03 103.307 200.768 103.307C205.747 103.307 209.621 101.379 212.392 97.5234C215.162 93.6676 216.547 87.8652 216.547 80.1162ZM277.584 111C276.986 109.802 276.499 107.668 276.125 104.599C271.295 109.615 265.53 112.123 258.83 112.123C252.84 112.123 247.917 110.438 244.062 107.069C240.243 103.663 238.334 99.3577 238.334 94.1543C238.334 87.8278 240.73 82.9238 245.521 79.4424C250.351 75.9235 257.126 74.1641 265.849 74.1641H275.956V69.3911C275.956 65.7599 274.87 62.8774 272.699 60.7437C270.528 58.5724 267.327 57.4868 263.097 57.4868C259.391 57.4868 256.284 58.4227 253.776 60.2944C251.268 62.1662 250.014 64.431 250.014 67.0889H239.569C239.569 64.0566 240.636 61.1367 242.77 58.3291C244.941 55.484 247.861 53.238 251.53 51.5908C255.236 49.9437 259.298 49.1201 263.715 49.1201C270.715 49.1201 276.199 50.8796 280.167 54.3984C284.136 57.8799 286.194 62.6903 286.344 68.8296V96.7935C286.344 102.371 287.056 106.807 288.478 110.102V111H277.584ZM260.346 103.083C263.603 103.083 266.691 102.24 269.611 100.556C272.531 98.8711 274.646 96.6812 275.956 93.9858V81.52H267.814C255.086 81.52 248.722 85.2448 248.722 92.6943C248.722 95.9512 249.808 98.4967 251.979 100.331C254.15 102.165 256.939 103.083 260.346 103.083ZM312.455 50.2432L312.792 57.8799C317.434 52.04 323.498 49.1201 330.985 49.1201C343.826 49.1201 350.302 56.3638 350.414 70.8511V111H340.026V70.7949C339.988 66.415 338.978 63.1769 336.994 61.0806C335.047 58.9842 331.996 57.936 327.841 57.936C324.472 57.936 321.514 58.8345 318.969 60.6313C316.423 62.4282 314.439 64.7866 313.017 67.7065V111H302.628V50.2432H312.455ZM377.367 111H366.979V50.2432H377.367V111ZM366.137 34.1274C366.137 32.4429 366.642 31.0203 367.653 29.8599C368.701 28.6994 370.236 28.1191 372.257 28.1191C374.279 28.1191 375.814 28.6994 376.862 29.8599C377.91 31.0203 378.434 32.4429 378.434 34.1274C378.434 35.812 377.91 37.2158 376.862 38.3389C375.814 39.4619 374.279 40.0234 372.257 40.0234C370.236 40.0234 368.701 39.4619 367.653 38.3389C366.642 37.2158 366.137 35.812 366.137 34.1274ZM391.518 80.1162C391.518 70.7949 393.726 63.3079 398.144 57.6553C402.561 51.9652 408.345 49.1201 415.495 49.1201C422.607 49.1201 428.241 51.5534 432.396 56.4199V24.75H442.785V111H433.239L432.733 104.486C428.578 109.577 422.794 112.123 415.382 112.123C408.345 112.123 402.598 109.241 398.144 103.476C393.726 97.7106 391.518 90.1862 391.518 80.9023V80.1162ZM401.906 81.2954C401.906 88.1834 403.328 93.5741 406.173 97.4673C409.018 101.361 412.949 103.307 417.965 103.307C424.554 103.307 429.364 100.35 432.396 94.4351V66.5273C429.289 60.7998 424.516 57.936 418.078 57.936C412.986 57.936 409.018 59.9014 406.173 63.832C403.328 67.7627 401.906 73.5838 401.906 81.2954ZM510.392 81.2954C510.392 90.5793 508.258 98.0475 503.991 103.7C499.723 109.315 493.996 112.123 486.808 112.123C479.134 112.123 473.201 109.409 469.008 103.981L468.502 111H458.957V24.75H469.345V56.9253C473.537 51.7218 479.321 49.1201 486.696 49.1201C494.07 49.1201 499.854 51.909 504.047 57.4868C508.277 63.0646 510.392 70.7013 510.392 80.397V81.2954ZM500.004 80.1162C500.004 73.041 498.638 67.5755 495.905 63.7197C493.172 59.8639 489.241 57.936 484.113 57.936C477.262 57.936 472.34 61.118 469.345 67.4819V93.7612C472.527 100.125 477.487 103.307 484.225 103.307C489.204 103.307 493.078 101.379 495.849 97.5234C498.619 93.6676 500.004 87.8652 500.004 80.1162ZM523.756 105.553C523.756 103.756 524.28 102.259 525.329 101.061C526.414 99.8631 528.024 99.2642 530.158 99.2642C532.292 99.2642 533.901 99.8631 534.987 101.061C536.11 102.259 536.671 103.756 536.671 105.553C536.671 107.275 536.11 108.716 534.987 109.877C533.901 111.037 532.292 111.618 530.158 111.618C528.024 111.618 526.414 111.037 525.329 109.877C524.28 108.716 523.756 107.275 523.756 105.553ZM605.177 81.2954C605.177 90.5418 603.062 97.9914 598.832 103.644C594.602 109.297 588.874 112.123 581.649 112.123C574.275 112.123 568.472 109.783 564.242 105.104V134.359H553.854V50.2432H563.344L563.849 56.9814C568.079 51.7406 573.957 49.1201 581.481 49.1201C588.781 49.1201 594.546 51.8716 598.776 57.3745C603.043 62.8774 605.177 70.5329 605.177 80.3408V81.2954ZM594.789 80.1162C594.789 73.2656 593.329 67.8563 590.409 63.8882C587.489 59.9201 583.484 57.936 578.393 57.936C572.104 57.936 567.387 60.7249 564.242 66.3027V95.3335C567.349 100.874 572.104 103.644 578.505 103.644C583.484 103.644 587.433 101.679 590.353 97.748C593.31 93.7799 594.789 87.9027 594.789 80.1162ZM637.633 95.7827L651.784 50.2432H662.902L638.476 120.377C634.695 130.485 628.686 135.539 620.451 135.539L618.485 135.37L614.611 134.64V126.217L617.418 126.442C620.937 126.442 623.67 125.731 625.617 124.308C627.601 122.886 629.229 120.284 630.502 116.503L632.804 110.326L611.129 50.2432H622.472L637.633 95.7827Z" fill="white"/>
<path d="M220.534 103.7L222.922 105.515L222.928 105.508L220.534 103.7ZM185.551 103.981L187.925 102.147L183.123 95.9298L182.559 103.766L185.551 103.981ZM185.045 111V114H187.837L188.038 111.215L185.045 111ZM175.5 111H172.5V114H175.5V111ZM175.5 24.75V21.75H172.5V24.75H175.5ZM185.888 24.75H188.888V21.75H185.888V24.75ZM185.888 56.9253H182.888V65.43L188.224 58.8076L185.888 56.9253ZM220.59 57.4868L218.192 59.2894L218.2 59.2996L220.59 57.4868ZM185.888 67.4819L183.173 66.2045L182.888 66.8113V67.4819H185.888ZM185.888 93.7612H182.888V94.4694L183.204 95.1029L185.888 93.7612ZM223.935 81.2954C223.935 90.1296 221.907 96.902 218.139 101.893L222.928 105.508C227.695 99.1931 229.935 91.0289 229.935 81.2954H223.935ZM218.145 101.885C214.458 106.737 209.622 109.123 203.351 109.123V115.123C211.455 115.123 218.075 111.894 222.922 105.515L218.145 101.885ZM203.351 109.123C196.48 109.123 191.477 106.745 187.925 102.147L183.177 105.815C188.01 112.073 194.874 115.123 203.351 115.123V109.123ZM182.559 103.766L182.053 110.785L188.038 111.215L188.543 104.196L182.559 103.766ZM185.045 108H175.5V114H185.045V108ZM178.5 111V24.75H172.5V111H178.5ZM175.5 27.75H185.888V21.75H175.5V27.75ZM182.888 24.75V56.9253H188.888V24.75H182.888ZM188.224 58.8076C191.783 54.3902 196.665 52.1201 203.239 52.1201V46.1201C195.063 46.1201 188.378 49.0535 183.552 55.043L188.224 58.8076ZM203.239 52.1201C209.733 52.1201 214.602 54.5141 218.192 59.2894L222.988 55.6842C218.192 49.3039 211.494 46.1201 203.239 46.1201V52.1201ZM218.2 59.2996C221.907 64.1883 223.935 71.1087 223.935 80.397H229.935C229.935 70.294 227.733 61.941 222.98 55.674L218.2 59.2996ZM223.935 80.397V81.2954H229.935V80.397H223.935ZM219.547 80.1162C219.547 72.7115 218.126 66.543 214.895 61.985L210 65.4544C212.235 68.608 213.547 73.3705 213.547 80.1162H219.547ZM214.895 61.985C211.546 57.2596 206.66 54.936 200.656 54.936V60.936C204.909 60.936 207.884 62.4683 210 65.4544L214.895 61.985ZM200.656 54.936C196.752 54.936 193.221 55.8484 190.197 57.803C187.178 59.7544 184.861 62.6174 183.173 66.2045L188.602 68.7593C189.909 65.9825 191.551 64.0726 193.454 62.842C195.353 61.6146 197.709 60.936 200.656 60.936V54.936ZM182.888 67.4819V93.7612H188.888V67.4819H182.888ZM183.204 95.1029C184.987 98.6675 187.354 101.508 190.374 103.446C193.404 105.389 196.909 106.307 200.768 106.307V100.307C197.889 100.307 195.544 99.6338 193.614 98.3956C191.675 97.1513 189.971 95.2189 188.571 92.4196L183.204 95.1029ZM200.768 106.307C206.657 106.307 211.463 103.958 214.828 99.2739L209.955 95.773C207.78 98.8004 204.836 100.307 200.768 100.307V106.307ZM214.828 99.2739C218.131 94.6764 219.547 88.1305 219.547 80.1162H213.547C213.547 87.6 212.193 92.6589 209.955 95.773L214.828 99.2739ZM277.584 111L274.901 112.342L275.73 114H277.584V111ZM276.125 104.599L279.102 104.235L278.339 97.973L273.963 102.518L276.125 104.599ZM244.062 107.069L242.064 109.308L242.076 109.318L242.088 109.328L244.062 107.069ZM245.521 79.4424L247.285 81.8694L247.288 81.867L245.521 79.4424ZM275.956 74.1641V77.1641H278.956V74.1641H275.956ZM272.699 60.7437L270.578 62.865L270.587 62.8742L270.596 62.8833L272.699 60.7437ZM250.014 67.0889V70.0889H253.014V67.0889H250.014ZM239.569 67.0889H236.569V70.0889H239.569V67.0889ZM242.77 58.3291L240.385 56.5091L240.382 56.5139L242.77 58.3291ZM251.53 51.5908L250.311 48.8494L250.301 48.854L251.53 51.5908ZM280.167 54.3984L278.177 56.643L278.183 56.6483L278.189 56.6535L280.167 54.3984ZM286.344 68.8296H289.344V68.793L289.343 68.7564L286.344 68.8296ZM288.478 110.102H291.478V109.482L291.232 108.912L288.478 110.102ZM288.478 111V114H291.478V111H288.478ZM275.956 93.9858L278.654 95.2974L278.956 94.6764V93.9858H275.956ZM275.956 81.52H278.956V78.52H275.956V81.52ZM280.268 109.658C279.922 108.966 279.475 107.294 279.102 104.235L273.147 104.962C273.522 108.043 274.049 110.638 274.901 112.342L280.268 109.658ZM273.963 102.518C269.675 106.973 264.68 109.123 258.83 109.123V115.123C266.381 115.123 272.916 112.257 278.286 106.679L273.963 102.518ZM258.83 109.123C253.436 109.123 249.254 107.622 246.035 104.81L242.088 109.328C246.581 113.255 252.244 115.123 258.83 115.123V109.123ZM246.059 104.831C242.891 102.004 241.334 98.5192 241.334 94.1543H235.334C235.334 100.196 237.596 105.321 242.064 109.308L246.059 104.831ZM241.334 94.1543C241.334 88.7115 243.33 84.7428 247.285 81.8694L243.758 77.0154C238.13 81.1048 235.334 86.9441 235.334 94.1543H241.334ZM247.288 81.867C251.417 78.8585 257.482 77.1641 265.849 77.1641V71.1641C256.771 71.1641 249.284 72.9885 243.755 77.0178L247.288 81.867ZM265.849 77.1641H275.956V71.1641H265.849V77.1641ZM278.956 74.1641V69.3911H272.956V74.1641H278.956ZM278.956 69.3911C278.956 65.1221 277.656 61.4089 274.802 58.604L270.596 62.8833C272.085 64.346 272.956 66.3978 272.956 69.3911H278.956ZM274.821 58.6223C271.902 55.7035 267.816 54.4868 263.097 54.4868V60.4868C266.838 60.4868 269.154 61.4414 270.578 62.865L274.821 58.6223ZM263.097 54.4868C258.867 54.4868 255.099 55.5641 251.982 57.8901L255.57 62.6987C257.469 61.2813 259.915 60.4868 263.097 60.4868V54.4868ZM251.982 57.8901C248.867 60.2144 247.014 63.3089 247.014 67.0889H253.014C253.014 65.5531 253.668 64.118 255.57 62.6987L251.982 57.8901ZM250.014 64.0889H239.569V70.0889H250.014V64.0889ZM242.569 67.0889C242.569 64.8154 243.354 62.5185 245.159 60.1444L240.382 56.5139C237.918 59.755 236.569 63.2979 236.569 67.0889H242.569ZM245.155 60.1491C246.987 57.7482 249.488 55.7959 252.759 54.3276L250.301 48.854C246.234 50.68 242.895 53.2199 240.385 56.5091L245.155 60.1491ZM252.748 54.3323C256.038 52.8703 259.679 52.1201 263.715 52.1201V46.1201C258.916 46.1201 254.434 47.017 250.311 48.8494L252.748 54.3323ZM263.715 52.1201C270.221 52.1201 274.914 53.7489 278.177 56.643L282.158 52.1539C277.485 48.0102 271.21 46.1201 263.715 46.1201V52.1201ZM278.189 56.6535C281.422 59.4905 283.212 63.4515 283.345 68.9027L289.343 68.7564C289.177 61.9291 286.849 56.2693 282.146 52.1433L278.189 56.6535ZM283.344 68.8296V96.7935H289.344V68.8296H283.344ZM283.344 96.7935C283.344 102.577 284.074 107.471 285.724 111.291L291.232 108.912C290.037 106.143 289.344 102.165 289.344 96.7935H283.344ZM285.478 110.102V111H291.478V110.102H285.478ZM288.478 108H277.584V114H288.478V108ZM260.346 106.083C264.148 106.083 267.751 105.092 271.11 103.154L268.112 97.9571C265.631 99.3883 263.057 100.083 260.346 100.083V106.083ZM271.11 103.154C274.482 101.209 277.05 98.5977 278.654 95.2974L273.258 92.6743C272.242 94.7646 270.58 96.5333 268.112 97.9571L271.11 103.154ZM278.956 93.9858V81.52H272.956V93.9858H278.956ZM275.956 78.52H267.814V84.52H275.956V78.52ZM267.814 78.52C261.256 78.52 255.845 79.4623 251.98 81.7245C247.867 84.1318 245.722 87.9177 245.722 92.6943H251.722C251.722 90.0215 252.76 88.2201 255.011 86.9027C257.509 85.4401 261.644 84.52 267.814 84.52V78.52ZM245.722 92.6943C245.722 96.6906 247.094 100.132 250.043 102.623L253.915 98.0394C252.521 96.8618 251.722 95.2117 251.722 92.6943H245.722ZM250.043 102.623C252.858 105.001 256.377 106.083 260.346 106.083V100.083C257.501 100.083 255.442 99.3296 253.915 98.0394L250.043 102.623ZM312.455 50.2432L315.452 50.1109L315.326 47.2432H312.455V50.2432ZM312.792 57.8799L309.795 58.0121L310.148 66.0268L315.14 59.7466L312.792 57.8799ZM350.414 70.8511H353.414V70.8394L353.414 70.8278L350.414 70.8511ZM350.414 111V114H353.414V111H350.414ZM340.026 111H337.026V114H340.026V111ZM340.026 70.7949H343.026V70.7821L343.026 70.7693L340.026 70.7949ZM336.994 61.0806L334.795 63.1219L334.805 63.1324L334.815 63.1427L336.994 61.0806ZM313.017 67.7065L310.32 66.3926L310.017 67.0146V67.7065H313.017ZM313.017 111V114H316.017V111H313.017ZM302.628 111H299.628V114H302.628V111ZM302.628 50.2432V47.2432H299.628V50.2432H302.628ZM309.458 50.3754L309.795 58.0121L315.789 57.7477L315.452 50.1109L309.458 50.3754ZM315.14 59.7466C319.211 54.6258 324.409 52.1201 330.985 52.1201V46.1201C322.588 46.1201 315.657 49.4543 310.444 56.0132L315.14 59.7466ZM330.985 52.1201C336.841 52.1201 340.735 53.7552 343.236 56.5524C345.797 59.417 347.361 64.012 347.414 70.8743L353.414 70.8278C353.355 63.2029 351.624 56.9323 347.709 52.5533C343.734 48.1069 337.97 46.1201 330.985 46.1201V52.1201ZM347.414 70.8511V111H353.414V70.8511H347.414ZM350.414 108H340.026V114H350.414V108ZM343.026 111V70.7949H337.026V111H343.026ZM343.026 70.7693C342.985 66.013 341.891 61.8912 339.173 59.0184L334.815 63.1427C336.064 64.4627 336.992 66.817 337.026 70.8206L343.026 70.7693ZM339.192 59.0392C336.462 56.0987 332.448 54.936 327.841 54.936V60.936C331.544 60.936 333.632 61.8697 334.795 63.1219L339.192 59.0392ZM327.841 54.936C323.905 54.936 320.332 55.9969 317.239 58.1804L320.699 63.0823C322.697 61.6721 325.038 60.936 327.841 60.936V54.936ZM317.239 58.1804C314.262 60.2814 311.954 63.0383 310.32 66.3926L315.714 69.0205C316.924 66.5349 318.584 64.5751 320.699 63.0823L317.239 58.1804ZM310.017 67.7065V111H316.017V67.7065H310.017ZM313.017 108H302.628V114H313.017V108ZM305.628 111V50.2432H299.628V111H305.628ZM302.628 53.2432H312.455V47.2432H302.628V53.2432ZM377.367 111V114H380.367V111H377.367ZM366.979 111H363.979V114H366.979V111ZM366.979 50.2432V47.2432H363.979V50.2432H366.979ZM377.367 50.2432H380.367V47.2432H377.367V50.2432ZM367.653 29.8599L365.427 27.849L365.408 27.8691L365.391 27.8895L367.653 29.8599ZM367.653 38.3389L365.423 40.3458L365.441 40.366L365.46 40.3858L367.653 38.3389ZM377.367 108H366.979V114H377.367V108ZM369.979 111V50.2432H363.979V111H369.979ZM366.979 53.2432H377.367V47.2432H366.979V53.2432ZM374.367 50.2432V111H380.367V50.2432H374.367ZM369.137 34.1274C369.137 33.0933 369.426 32.3913 369.915 31.8302L365.391 27.8895C363.858 29.6494 363.137 31.7924 363.137 34.1274H369.137ZM369.879 31.8707C370.203 31.5122 370.821 31.1191 372.257 31.1191V25.1191C369.651 25.1191 367.199 25.8866 365.427 27.849L369.879 31.8707ZM372.257 31.1191C373.694 31.1191 374.312 31.5122 374.636 31.8707L379.088 27.849C377.316 25.8866 374.864 25.1191 372.257 25.1191V31.1191ZM374.636 31.8707C375.145 32.4352 375.434 33.1234 375.434 34.1274H381.434C381.434 31.7624 380.675 29.6055 379.088 27.849L374.636 31.8707ZM375.434 34.1274C375.434 35.132 375.146 35.7801 374.669 36.2919L379.055 40.3858C380.674 38.6515 381.434 36.492 381.434 34.1274H375.434ZM374.669 36.2919C374.352 36.6312 373.723 37.0234 372.257 37.0234V43.0234C374.835 43.0234 377.275 42.2926 379.055 40.3858L374.669 36.2919ZM372.257 37.0234C370.792 37.0234 370.163 36.6312 369.846 36.2919L365.46 40.3858C367.239 42.2926 369.68 43.0234 372.257 43.0234V37.0234ZM369.883 36.332C369.426 35.8244 369.137 35.1626 369.137 34.1274H363.137C363.137 36.4614 363.858 38.6072 365.423 40.3458L369.883 36.332ZM398.144 57.6553L400.507 59.5025L400.513 59.4949L398.144 57.6553ZM432.396 56.4199L430.115 58.368L435.396 64.5535V56.4199H432.396ZM432.396 24.75V21.75H429.396V24.75H432.396ZM442.785 24.75H445.785V21.75H442.785V24.75ZM442.785 111V114H445.785V111H442.785ZM433.239 111L430.248 111.232L430.463 114H433.239V111ZM432.733 104.486L435.724 104.254L435.145 96.787L430.409 102.589L432.733 104.486ZM398.144 103.476L395.762 105.3L395.77 105.31L398.144 103.476ZM432.396 94.4351L435.066 95.8037L435.396 95.1592V94.4351H432.396ZM432.396 66.5273H435.396V65.766L435.033 65.0968L432.396 66.5273ZM394.518 80.1162C394.518 71.2626 396.611 64.4881 400.507 59.5025L395.78 55.808C390.841 62.1278 388.518 70.3272 388.518 80.1162H394.518ZM400.513 59.4949C404.367 54.5304 409.279 52.1201 415.495 52.1201V46.1201C407.41 46.1201 400.754 49.3999 395.774 55.8156L400.513 59.4949ZM415.495 52.1201C421.84 52.1201 426.597 54.2483 430.115 58.368L434.678 54.4719C429.885 48.8584 423.375 46.1201 415.495 46.1201V52.1201ZM435.396 56.4199V24.75H429.396V56.4199H435.396ZM432.396 27.75H442.785V21.75H432.396V27.75ZM439.785 24.75V111H445.785V24.75H439.785ZM442.785 108H433.239V114H442.785V108ZM436.23 110.768L435.724 104.254L429.742 104.718L430.248 111.232L436.23 110.768ZM430.409 102.589C426.901 106.888 422.023 109.123 415.382 109.123V115.123C423.565 115.123 430.255 112.267 435.058 106.383L430.409 102.589ZM415.382 109.123C409.311 109.123 404.427 106.701 400.517 101.641L395.77 105.31C400.769 111.78 407.378 115.123 415.382 115.123V109.123ZM400.525 101.651C396.609 96.5399 394.518 89.712 394.518 80.9023H388.518C388.518 90.6604 390.844 98.8813 395.762 105.3L400.525 101.651ZM394.518 80.9023V80.1162H388.518V80.9023H394.518ZM398.906 81.2954C398.906 88.5565 400.4 94.6522 403.751 99.2373L408.596 95.6972C406.256 92.4959 404.906 87.8103 404.906 81.2954H398.906ZM403.751 99.2373C407.187 103.94 412.037 106.307 417.965 106.307V100.307C413.861 100.307 410.849 98.7815 408.596 95.6972L403.751 99.2373ZM417.965 106.307C421.72 106.307 425.134 105.46 428.086 103.645C431.036 101.831 433.344 99.1622 435.066 95.8037L429.727 93.0665C428.416 95.6226 426.803 97.3899 424.943 98.5335C423.085 99.676 420.799 100.307 417.965 100.307V106.307ZM435.396 94.4351V66.5273H429.396V94.4351H435.396ZM435.033 65.0968C433.268 61.8428 430.95 59.2633 428.03 57.5114C425.108 55.7583 421.754 54.936 418.078 54.936V60.936C420.84 60.936 423.092 61.5456 424.943 62.6563C426.796 63.7682 428.418 65.4843 429.76 67.9579L435.033 65.0968ZM418.078 54.936C412.08 54.936 407.184 57.3188 403.743 62.073L408.604 65.591C410.853 62.4839 413.893 60.936 418.078 60.936V54.936ZM403.743 62.073C400.367 66.7374 398.906 73.2964 398.906 81.2954H404.906C404.906 73.8713 406.29 68.788 408.604 65.591L403.743 62.073ZM503.991 103.7L506.379 105.515L506.385 105.508L503.991 103.7ZM469.008 103.981L471.382 102.147L466.58 95.9298L466.016 103.766L469.008 103.981ZM468.502 111V114H471.294L471.495 111.215L468.502 111ZM458.957 111H455.957V114H458.957V111ZM458.957 24.75V21.75H455.957V24.75H458.957ZM469.345 24.75H472.345V21.75H469.345V24.75ZM469.345 56.9253H466.345V65.43L471.681 58.8076L469.345 56.9253ZM504.047 57.4868L501.649 59.2894L501.657 59.2996L504.047 57.4868ZM469.345 67.4819L466.63 66.2045L466.345 66.8113V67.4819H469.345ZM469.345 93.7612H466.345V94.4694L466.661 95.1029L469.345 93.7612ZM507.392 81.2954C507.392 90.1296 505.364 96.902 501.596 101.893L506.385 105.508C511.152 99.1931 513.392 91.0289 513.392 81.2954H507.392ZM501.602 101.885C497.915 106.737 493.079 109.123 486.808 109.123V115.123C494.912 115.123 501.532 111.894 506.379 105.515L501.602 101.885ZM486.808 109.123C479.937 109.123 474.934 106.745 471.382 102.147L466.634 105.815C471.467 112.073 478.331 115.123 486.808 115.123V109.123ZM466.016 103.766L465.51 110.785L471.495 111.215L472 104.196L466.016 103.766ZM468.502 108H458.957V114H468.502V108ZM461.957 111V24.75H455.957V111H461.957ZM458.957 27.75H469.345V21.75H458.957V27.75ZM466.345 24.75V56.9253H472.345V24.75H466.345ZM471.681 58.8076C475.24 54.3902 480.122 52.1201 486.696 52.1201V46.1201C478.52 46.1201 471.835 49.0535 467.009 55.043L471.681 58.8076ZM486.696 52.1201C493.19 52.1201 498.059 54.5141 501.649 59.2894L506.445 55.6842C501.649 49.3039 494.951 46.1201 486.696 46.1201V52.1201ZM501.657 59.2996C505.364 64.1883 507.392 71.1087 507.392 80.397H513.392C513.392 70.294 511.19 61.941 506.437 55.674L501.657 59.2996ZM507.392 80.397V81.2954H513.392V80.397H507.392ZM503.004 80.1162C503.004 72.7115 501.583 66.543 498.352 61.985L493.457 65.4544C495.692 68.608 497.004 73.3705 497.004 80.1162H503.004ZM498.352 61.985C495.003 57.2596 490.117 54.936 484.113 54.936V60.936C488.366 60.936 491.341 62.4683 493.457 65.4544L498.352 61.985ZM484.113 54.936C480.209 54.936 476.678 55.8484 473.654 57.803C470.635 59.7544 468.318 62.6174 466.63 66.2045L472.059 68.7593C473.366 65.9825 475.008 64.0726 476.911 62.842C478.81 61.6146 481.166 60.936 484.113 60.936V54.936ZM466.345 67.4819V93.7612H472.345V67.4819H466.345ZM466.661 95.1029C468.444 98.6675 470.811 101.508 473.831 103.446C476.861 105.389 480.366 106.307 484.225 106.307V100.307C481.346 100.307 479.001 99.6338 477.071 98.3956C475.132 97.1513 473.428 95.2189 472.028 92.4196L466.661 95.1029ZM484.225 106.307C490.114 106.307 494.92 103.958 498.285 99.2739L493.412 95.773C491.237 98.8004 488.293 100.307 484.225 100.307V106.307ZM498.285 99.2739C501.588 94.6764 503.004 88.1305 503.004 80.1162H497.004C497.004 87.6 495.65 92.6589 493.412 95.773L498.285 99.2739ZM525.329 101.061L523.106 99.0465L523.088 99.0658L523.071 99.0855L525.329 101.061ZM534.987 101.061L532.764 103.076L532.781 103.094L532.798 103.113L534.987 101.061ZM534.987 109.877L532.831 107.791L532.813 107.809L532.796 107.827L534.987 109.877ZM525.329 109.877L523.102 111.888L523.12 111.907L523.138 111.926L525.329 109.877ZM526.756 105.553C526.756 104.383 527.079 103.617 527.586 103.037L523.071 99.0855C521.482 100.901 520.756 103.13 520.756 105.553H526.756ZM527.552 103.076C527.902 102.689 528.585 102.264 530.158 102.264V96.2642C527.462 96.2642 524.927 97.0369 523.106 99.0465L527.552 103.076ZM530.158 102.264C531.73 102.264 532.414 102.689 532.764 103.076L537.21 99.0465C535.389 97.0369 532.853 96.2642 530.158 96.2642V102.264ZM532.798 103.113C533.349 103.7 533.671 104.44 533.671 105.553H539.671C539.671 103.072 538.871 100.818 537.175 99.0092L532.798 103.113ZM533.671 105.553C533.671 106.554 533.374 107.229 532.831 107.791L537.143 111.963C538.845 110.204 539.671 107.997 539.671 105.553H533.671ZM532.796 107.827C532.453 108.195 531.758 108.618 530.158 108.618V114.618C532.825 114.618 535.35 113.88 537.178 111.926L532.796 107.827ZM530.158 108.618C528.558 108.618 527.863 108.195 527.519 107.827L523.138 111.926C524.966 113.88 527.49 114.618 530.158 114.618V108.618ZM527.555 107.866C527.057 107.314 526.756 106.614 526.756 105.553H520.756C520.756 107.937 521.504 110.118 523.102 111.888L527.555 107.866ZM564.242 105.104L566.468 103.092L561.242 97.3118V105.104H564.242ZM564.242 134.359V137.359H567.242V134.359H564.242ZM553.854 134.359H550.854V137.359H553.854V134.359ZM553.854 50.2432V47.2432H550.854V50.2432H553.854ZM563.344 50.2432L566.335 50.0188L566.127 47.2432H563.344V50.2432ZM563.849 56.9814L560.858 57.2058L561.424 64.7622L566.184 58.8657L563.849 56.9814ZM598.776 57.3745L596.397 59.2029L596.405 59.213L598.776 57.3745ZM564.242 66.3027L561.629 64.8295L561.242 65.5153V66.3027H564.242ZM564.242 95.3335H561.242V96.1173L561.626 96.8009L564.242 95.3335ZM590.353 97.748L587.948 95.9553L587.945 95.9591L590.353 97.748ZM602.177 81.2954C602.177 90.0943 600.167 96.8531 596.43 101.847L601.234 105.441C605.957 99.1297 608.177 90.9894 608.177 81.2954H602.177ZM596.43 101.847C592.782 106.722 587.955 109.123 581.649 109.123V115.123C589.794 115.123 596.422 111.872 601.234 105.441L596.43 101.847ZM581.649 109.123C574.966 109.123 570.031 107.034 566.468 103.092L562.017 107.116C566.913 112.532 573.584 115.123 581.649 115.123V109.123ZM561.242 105.104V134.359H567.242V105.104H561.242ZM564.242 131.359H553.854V137.359H564.242V131.359ZM556.854 134.359V50.2432H550.854V134.359H556.854ZM553.854 53.2432H563.344V47.2432H553.854V53.2432ZM560.352 50.4675L560.858 57.2058L566.841 56.7571L566.335 50.0188L560.352 50.4675ZM566.184 58.8657C569.773 54.4191 574.743 52.1201 581.481 52.1201V46.1201C573.17 46.1201 566.386 49.062 561.515 55.0972L566.184 58.8657ZM581.481 52.1201C587.905 52.1201 592.768 54.482 596.397 59.2029L601.154 55.5462C596.323 49.2612 589.656 46.1201 581.481 46.1201V52.1201ZM596.405 59.213C600.127 64.0127 602.177 70.9328 602.177 80.3408H608.177C608.177 70.133 605.959 61.7422 601.147 55.536L596.405 59.213ZM602.177 80.3408V81.2954H608.177V80.3408H602.177ZM597.789 80.1162C597.789 72.8697 596.247 66.7603 592.825 62.1101L587.993 65.6662C590.411 68.9523 591.789 73.6615 591.789 80.1162H597.789ZM592.825 62.1101C589.318 57.344 584.4 54.936 578.393 54.936V60.936C582.567 60.936 585.66 62.4962 587.993 65.6662L592.825 62.1101ZM578.393 54.936C570.997 54.936 565.293 58.3297 561.629 64.8295L566.856 67.776C569.48 63.1202 573.211 60.936 578.393 60.936V54.936ZM561.242 66.3027V95.3335H567.242V66.3027H561.242ZM561.626 96.8009C563.4 99.9648 565.721 102.465 568.628 104.158C571.534 105.852 574.861 106.644 578.505 106.644V100.644C575.747 100.644 573.497 100.051 571.649 98.9743C569.801 97.898 568.192 96.2425 566.859 93.8661L561.626 96.8009ZM578.505 106.644C584.414 106.644 589.264 104.245 592.761 99.537L587.945 95.9591C585.602 99.1128 582.553 100.644 578.505 100.644V106.644ZM592.758 99.5408C596.267 94.8334 597.789 88.2036 597.789 80.1162H591.789C591.789 87.6018 590.354 92.7265 587.948 95.9553L592.758 99.5408ZM637.633 95.7827L634.787 96.7303L637.732 105.576L640.498 96.6729L637.633 95.7827ZM651.784 50.2432V47.2432H649.574L648.919 49.353L651.784 50.2432ZM662.902 50.2432L665.735 51.2299L667.123 47.2432H662.902V50.2432ZM638.476 120.377L641.285 121.429L641.297 121.396L641.309 121.364L638.476 120.377ZM620.451 135.539L620.194 138.528L620.322 138.539H620.451V135.539ZM618.485 135.37L617.93 138.318L618.078 138.346L618.229 138.359L618.485 135.37ZM614.611 134.64H611.611V137.128L614.055 137.588L614.611 134.64ZM614.611 126.217L614.85 123.227L611.611 122.968V126.217H614.611ZM617.418 126.442L617.179 129.432L617.299 129.442H617.418V126.442ZM625.617 124.308L623.869 121.87L623.858 121.878L623.847 121.886L625.617 124.308ZM630.502 116.503L627.691 115.455L627.674 115.5L627.659 115.546L630.502 116.503ZM632.804 110.326L635.615 111.374L636 110.343L635.626 109.308L632.804 110.326ZM611.129 50.2432V47.2432H606.858L608.307 51.2612L611.129 50.2432ZM622.472 50.2432L625.319 49.2955L624.635 47.2432H622.472V50.2432ZM640.498 96.6729L654.649 51.1334L648.919 49.353L634.768 94.8925L640.498 96.6729ZM651.784 53.2432H662.902V47.2432H651.784V53.2432ZM660.069 49.2565L635.642 119.391L641.309 121.364L665.735 51.2299L660.069 49.2565ZM635.666 119.326C633.892 124.069 631.691 127.359 629.203 129.452C626.767 131.501 623.9 132.539 620.451 132.539V138.539C625.237 138.539 629.492 137.049 633.065 134.044C636.585 131.083 639.279 126.793 641.285 121.429L635.666 119.326ZM620.707 132.55L618.742 132.381L618.229 138.359L620.194 138.528L620.707 132.55ZM619.041 132.422L615.166 131.692L614.055 137.588L617.93 138.318L619.041 132.422ZM617.611 134.64V126.217H611.611V134.64H617.611ZM614.372 129.208L617.179 129.432L617.658 123.451L614.85 123.227L614.372 129.208ZM617.418 129.442C621.294 129.442 624.739 128.665 627.387 126.73L623.847 121.886C622.601 122.796 620.581 123.442 617.418 123.442V129.442ZM627.365 126.746C630.093 124.79 631.988 121.492 633.345 117.46L627.659 115.546C626.47 119.076 625.109 120.981 623.869 121.87L627.365 126.746ZM633.313 117.551L635.615 111.374L629.993 109.278L627.691 115.455L633.313 117.551ZM635.626 109.308L613.951 49.2251L608.307 51.2612L629.982 111.344L635.626 109.308ZM611.129 53.2432H622.472V47.2432H611.129V53.2432ZM619.626 51.1908L634.787 96.7303L640.48 94.8351L625.319 49.2955L619.626 51.1908Z" fill="url(#paint0_linear)"/>
<defs>
<linearGradient id="paint0_linear" x1="416" y1="-71.5" x2="392.5" y2="79" gradientUnits="userSpaceOnUse">
<stop stop-color="#FB9F1C"/>
<stop offset="0.9999" stop-color="#FB9F1C"/>
<stop offset="1" stop-color="#15648D"/>
</linearGradient>
</defs>
</svg>
