<svg xmlns="http://www.w3.org/2000/svg" width="689" height="159" fill="none" viewBox="0 0 689 159"><circle cx="75" cy="75" r="75" fill="#FA9D1D"/><circle cx="75.5" cy="75.5" r="62.5" fill="#76809A"/><circle cx="75" cy="75" r="50" fill="#373E66"/><path fill="#00669B" fill-rule="evenodd" d="M41 111.661V97.2361C51.7427 95.7828 63.1618 95 75 95C86.8382 95 98.2573 95.7828 109 97.2361V111.661C100.078 119.939 88.1303 125 75 125C61.8697 125 49.9216 119.939 41 111.661Z" clip-rule="evenodd"/><path fill="#FB9F1C" fill-rule="evenodd" d="M75.5439 92.7875C85.2304 83.9996 91.3 71.3955 91.3 57.3938C91.3 43.392 85.2304 30.7879 75.5439 22C65.8574 30.7879 59.7878 43.392 59.7878 57.3938C59.7878 71.3955 65.8574 83.9996 75.5439 92.7875Z" clip-rule="evenodd"/><path fill="#FB9F1C" fill-rule="evenodd" d="M74.7561 92.7875C84.4426 83.9996 90.5122 71.3955 90.5122 57.3938C90.5122 43.392 84.4426 30.7879 74.7561 22C65.0696 30.7879 59 43.392 59 57.3938C59 71.3955 65.0696 83.9996 74.7561 92.7875Z" clip-rule="evenodd"/><path fill="#FCED1F" fill-rule="evenodd" d="M75.15 93.0276C81.2041 87.5351 84.9976 79.6576 84.9976 70.9065C84.9976 62.1553 81.2041 54.2778 75.15 48.7854C69.0959 54.2778 65.3024 62.1553 65.3024 70.9065C65.3024 79.6576 69.0959 87.5351 75.15 93.0276Z" clip-rule="evenodd"/><path fill="#fff" d="M539.74 109.553C539.74 107.756 540.264 106.259 541.312 105.061C542.398 103.863 544.008 103.264 546.142 103.264C548.275 103.264 549.885 103.863 550.971 105.061C552.094 106.259 552.655 107.756 552.655 109.553C552.655 111.275 552.094 112.716 550.971 113.877C549.885 115.037 548.275 115.618 546.142 115.618C544.008 115.618 542.398 115.037 541.312 113.877C540.264 112.716 539.74 111.275 539.74 109.553ZM621.161 85.2954C621.161 94.5418 619.046 101.991 614.816 107.644C610.586 113.297 604.858 116.123 597.633 116.123C590.259 116.123 584.456 113.783 580.226 109.104V138.359H569.838V54.2432H579.328L579.833 60.9814C584.063 55.7406 589.94 53.1201 597.465 53.1201C604.765 53.1201 610.53 55.8716 614.76 61.3745C619.027 66.8774 621.161 74.5329 621.161 84.3408V85.2954ZM610.773 84.1162C610.773 77.2656 609.313 71.8563 606.393 67.8882C603.473 63.9201 599.468 61.936 594.376 61.936C588.087 61.936 583.371 64.7249 580.226 70.3027V99.3335C583.333 104.874 588.087 107.644 594.489 107.644C599.468 107.644 603.417 105.679 606.337 101.748C609.294 97.7799 610.773 91.9027 610.773 84.1162ZM653.617 99.7827L667.768 54.2432H678.886L654.459 124.377C650.679 134.485 644.67 139.539 636.435 139.539L634.469 139.37L630.595 138.64V130.217L633.402 130.442C636.921 130.442 639.654 129.731 641.601 128.308C643.585 126.886 645.213 124.284 646.486 120.503L648.788 114.326L627.113 54.2432H638.456L653.617 99.7827Z"/><path fill="url(#paint0_linear)" d="M541.312 105.061L539.831 103.718L539.819 103.731L539.807 103.744L541.312 105.061ZM550.971 105.061L549.489 106.404L549.5 106.417L549.512 106.429L550.971 105.061ZM550.971 113.877L549.533 112.486L549.522 112.498L549.51 112.511L550.971 113.877ZM541.312 113.877L539.828 115.218L539.84 115.23L539.852 115.243L541.312 113.877ZM541.74 109.553C541.74 108.174 542.13 107.164 542.818 106.378L539.807 103.744C538.399 105.354 537.74 107.339 537.74 109.553H541.74ZM542.794 106.404C543.39 105.747 544.382 105.264 546.142 105.264V101.264C543.633 101.264 541.407 101.979 539.831 103.718L542.794 106.404ZM546.142 105.264C547.901 105.264 548.894 105.747 549.489 106.404L552.453 103.718C550.877 101.979 548.65 101.264 546.142 101.264V105.264ZM549.512 106.429C550.253 107.22 550.655 108.212 550.655 109.553H554.655C554.655 107.3 553.934 105.298 552.43 103.693L549.512 106.429ZM550.655 109.553C550.655 110.794 550.27 111.725 549.533 112.486L552.408 115.268C553.917 113.708 554.655 111.756 554.655 109.553H550.655ZM549.51 112.511C548.919 113.142 547.919 113.618 546.142 113.618V117.618C548.631 117.618 550.851 116.933 552.431 115.243L549.51 112.511ZM546.142 113.618C544.364 113.618 543.364 113.142 542.773 112.511L539.852 115.243C541.432 116.933 543.652 117.618 546.142 117.618V113.618ZM542.797 112.536C542.115 111.782 541.74 110.834 541.74 109.553H537.74C537.74 111.716 538.413 113.651 539.828 115.218L542.797 112.536ZM580.226 109.104L581.71 107.763L578.226 103.909V109.104H580.226ZM580.226 138.359V140.359H582.226V138.359H580.226ZM569.838 138.359H567.838V140.359H569.838V138.359ZM569.838 54.2432V52.2432H567.838V54.2432H569.838ZM579.328 54.2432L581.322 54.0936L581.183 52.2432H579.328V54.2432ZM579.833 60.9814L577.839 61.131L578.216 66.1686L581.389 62.2376L579.833 60.9814ZM614.76 61.3745L613.174 62.5934L613.179 62.6002L614.76 61.3745ZM580.226 70.3027L578.484 69.3205L578.226 69.7778V70.3027H580.226ZM580.226 99.3335H578.226V99.856L578.482 100.312L580.226 99.3335ZM606.337 101.748L604.733 100.553L604.731 100.555L606.337 101.748ZM619.161 85.2954C619.161 94.2435 617.116 101.233 613.215 106.446L616.417 108.842C620.976 102.75 623.161 94.8402 623.161 85.2954H619.161ZM613.215 106.446C609.372 111.58 604.245 114.123 597.633 114.123V118.123C605.471 118.123 611.799 115.013 616.417 108.842L613.215 106.446ZM597.633 114.123C590.719 114.123 585.496 111.951 581.71 107.763L578.742 110.445C583.417 115.616 589.798 118.123 597.633 118.123V114.123ZM578.226 109.104V138.359H582.226V109.104H578.226ZM580.226 136.359H569.838V140.359H580.226V136.359ZM571.838 138.359V54.2432H567.838V138.359H571.838ZM569.838 56.2432H579.328V52.2432H569.838V56.2432ZM577.333 54.3927L577.839 61.131L581.827 60.8319L581.322 54.0936L577.333 54.3927ZM581.389 62.2376C585.192 57.5263 590.465 55.1201 597.465 55.1201V51.1201C589.416 51.1201 582.934 53.9548 578.277 59.7253L581.389 62.2376ZM597.465 55.1201C604.181 55.1201 609.345 57.6118 613.174 62.5934L616.345 60.1556C611.714 54.1313 605.348 51.1201 597.465 51.1201V55.1201ZM613.179 62.6002C617.083 67.6343 619.161 74.7995 619.161 84.3408H623.161C623.161 74.2663 620.971 66.1206 616.34 60.1489L613.179 62.6002ZM619.161 84.3408V85.2954H623.161V84.3408H619.161ZM612.773 84.1162C612.773 77.0017 611.258 71.1256 608.004 66.7028L604.782 69.0735C607.368 72.5869 608.773 77.5296 608.773 84.1162H612.773ZM608.004 66.7028C604.693 62.2027 600.079 59.936 594.376 59.936V63.936C598.857 63.936 602.254 65.6375 604.782 69.0735L608.004 66.7028ZM594.376 59.936C587.349 59.936 581.975 63.1281 578.484 69.3205L581.968 71.2849C584.766 66.3218 588.825 63.936 594.376 63.936V59.936ZM578.226 70.3027V99.3335H582.226V70.3027H578.226ZM578.482 100.312C580.182 103.344 582.385 105.704 585.115 107.294C587.845 108.885 590.993 109.644 594.489 109.644V105.644C591.583 105.644 589.154 105.018 587.129 103.838C585.105 102.659 583.377 100.863 581.97 98.3552L578.482 100.312ZM594.489 109.644C600.088 109.644 604.638 107.389 607.942 102.941L604.731 100.555C602.196 103.968 598.847 105.644 594.489 105.644V109.644ZM607.941 102.943C611.265 98.4822 612.773 92.1033 612.773 84.1162H608.773C608.773 91.7021 607.323 97.0777 604.733 100.553L607.941 102.943ZM653.617 99.7827L651.72 100.414L653.683 106.312L655.527 100.376L653.617 99.7827ZM667.768 54.2432V52.2432H666.295L665.858 53.6497L667.768 54.2432ZM678.886 54.2432L680.774 54.901L681.7 52.2432H678.886V54.2432ZM654.459 124.377L656.333 125.078L656.341 125.057L656.348 125.035L654.459 124.377ZM636.435 139.539L636.264 141.531L636.349 141.539H636.435V139.539ZM634.469 139.37L634.099 141.336L634.198 141.354L634.298 141.363L634.469 139.37ZM630.595 138.64H628.595V140.299L630.224 140.606L630.595 138.64ZM630.595 130.217L630.754 128.224L628.595 128.051V130.217H630.595ZM633.402 130.442L633.243 132.436L633.322 132.442H633.402V130.442ZM641.601 128.308L640.435 126.683L640.428 126.688L640.421 126.693L641.601 128.308ZM646.486 120.503L644.612 119.804L644.601 119.834L644.59 119.865L646.486 120.503ZM648.788 114.326L650.662 115.025L650.918 114.337L650.669 113.647L648.788 114.326ZM627.113 54.2432V52.2432H624.266L625.232 54.9218L627.113 54.2432ZM638.456 54.2432L640.354 53.6114L639.898 52.2432H638.456V54.2432ZM655.527 100.376L669.677 54.8366L665.858 53.6497L651.707 99.1892L655.527 100.376ZM667.768 56.2432H678.886V52.2432H667.768V56.2432ZM676.997 53.5854L652.571 123.72L656.348 125.035L680.774 54.901L676.997 53.5854ZM652.586 123.677C650.773 128.523 648.49 131.98 645.83 134.218C643.205 136.426 640.106 137.539 636.435 137.539V141.539C640.998 141.539 645.022 140.125 648.405 137.279C651.753 134.463 654.365 130.339 656.333 125.078L652.586 123.677ZM636.605 137.546L634.64 137.377L634.298 141.363L636.264 141.531L636.605 137.546ZM634.84 137.405L630.965 136.675L630.224 140.606L634.099 141.336L634.84 137.405ZM632.595 138.64V130.217H628.595V138.64H632.595ZM630.435 132.211L633.243 132.436L633.562 128.448L630.754 128.224L630.435 132.211ZM633.402 132.442C637.159 132.442 640.366 131.687 642.781 129.923L640.421 126.693C638.941 127.774 636.684 128.442 633.402 128.442V132.442ZM642.766 129.933C645.246 128.155 647.052 125.089 648.381 121.141L644.59 119.865C643.374 123.479 641.923 125.616 640.435 126.683L642.766 129.933ZM648.36 121.201L650.662 115.025L646.914 113.628L644.612 119.804L648.36 121.201ZM650.669 113.647L628.995 53.5645L625.232 54.9218L646.907 115.005L650.669 113.647ZM627.113 56.2432H638.456V52.2432H627.113V56.2432ZM636.558 54.8749L651.72 100.414L655.515 99.151L640.354 53.6114L636.558 54.8749Z"/><path fill="#fff" d="M173.12 115V33.2422H199.849C208.721 33.2422 215.384 35.0765 219.839 38.7451C224.331 42.4137 226.577 47.8418 226.577 55.0293C226.577 58.8477 225.492 62.2355 223.32 65.1929C221.149 68.1128 218.192 70.3776 214.448 71.9873C218.866 73.2227 222.347 75.5811 224.893 79.0625C227.476 82.5065 228.767 86.6243 228.767 91.416C228.767 98.7533 226.39 104.518 221.636 108.711C216.882 112.904 210.162 115 201.477 115H173.12ZM183.901 76.7603V106.184H201.702C206.718 106.184 210.667 104.893 213.55 102.31C216.47 99.6891 217.93 96.0954 217.93 91.5283C217.93 81.6829 212.576 76.7603 201.87 76.7603H183.901ZM183.901 68.1128H200.186C204.902 68.1128 208.665 66.9336 211.472 64.5752C214.317 62.2168 215.74 59.0161 215.74 54.9731C215.74 50.481 214.43 47.2241 211.809 45.2026C209.189 43.1437 205.202 42.1143 199.849 42.1143H183.901V68.1128ZM280.652 115C280.053 113.802 279.566 111.668 279.192 108.599C274.363 113.615 268.598 116.123 261.897 116.123C255.907 116.123 250.985 114.438 247.129 111.069C243.311 107.663 241.401 103.358 241.401 98.1543C241.401 91.8278 243.797 86.9238 248.589 83.4424C253.418 79.9235 260.194 78.1641 268.916 78.1641H279.023V73.3911C279.023 69.7599 277.938 66.8774 275.767 64.7437C273.595 62.5724 270.395 61.4868 266.165 61.4868C262.458 61.4868 259.351 62.4227 256.843 64.2944C254.335 66.1662 253.081 68.431 253.081 71.0889H242.637C242.637 68.0566 243.704 65.1367 245.837 62.3291C248.009 59.484 250.929 57.238 254.597 55.5908C258.303 53.9437 262.365 53.1201 266.782 53.1201C273.783 53.1201 279.267 54.8796 283.235 58.3984C287.203 61.8799 289.262 66.6903 289.412 72.8296V100.793C289.412 106.371 290.123 110.807 291.545 114.102V115H280.652ZM263.413 107.083C266.67 107.083 269.758 106.24 272.678 104.556C275.598 102.871 277.713 100.681 279.023 97.9858V85.52H270.881C258.153 85.52 251.79 89.2448 251.79 96.6943C251.79 99.9512 252.875 102.497 255.046 104.331C257.218 106.165 260.007 107.083 263.413 107.083ZM315.522 54.2432L315.859 61.8799C320.501 56.04 326.566 53.1201 334.053 53.1201C346.893 53.1201 353.369 60.3638 353.481 74.8511V115H343.093V74.7949C343.056 70.415 342.045 67.1769 340.061 65.0806C338.114 62.9842 335.063 61.936 330.908 61.936C327.539 61.936 324.582 62.8345 322.036 64.6313C319.491 66.4282 317.507 68.7866 316.084 71.7065V115H305.696V54.2432H315.522ZM380.435 115H370.046V54.2432H380.435V115ZM369.204 38.1274C369.204 36.4429 369.709 35.0203 370.72 33.8599C371.768 32.6994 373.303 32.1191 375.325 32.1191C377.346 32.1191 378.881 32.6994 379.929 33.8599C380.977 35.0203 381.501 36.4429 381.501 38.1274C381.501 39.812 380.977 41.2158 379.929 42.3389C378.881 43.4619 377.346 44.0234 375.325 44.0234C373.303 44.0234 371.768 43.4619 370.72 42.3389C369.709 41.2158 369.204 39.812 369.204 38.1274ZM398.74 115V33.2422H421.819C428.931 33.2422 435.221 34.8145 440.686 37.959C446.152 41.1035 450.363 45.577 453.32 51.3794C456.315 57.1818 457.831 63.8452 457.869 71.3696V76.5918C457.869 84.3034 456.371 91.0604 453.376 96.8628C450.419 102.665 446.17 107.12 440.63 110.227C435.127 113.334 428.707 114.925 421.37 115H398.74ZM409.521 42.1143V106.184H420.864C429.175 106.184 435.632 103.601 440.237 98.4351C444.879 93.269 447.2 85.9131 447.2 76.3672V71.5942C447.2 62.3104 445.01 55.1042 440.63 49.9756C436.287 44.8096 430.111 42.1891 422.1 42.1143H409.521ZM474.209 115V33.2422H500.938C509.81 33.2422 516.473 35.0765 520.928 38.7451C525.42 42.4137 527.666 47.8418 527.666 55.0293C527.666 58.8477 526.58 62.2355 524.409 65.1929C522.238 68.1128 519.281 70.3776 515.537 71.9873C519.954 73.2227 523.436 75.5811 525.981 79.0625C528.564 82.5065 529.856 86.6243 529.856 91.416C529.856 98.7533 527.479 104.518 522.725 108.711C517.97 112.904 511.251 115 502.566 115H474.209ZM484.99 76.7603V106.184H502.791C507.807 106.184 511.756 104.893 514.639 102.31C517.559 99.6891 519.019 96.0954 519.019 91.5283C519.019 81.6829 513.665 76.7603 502.959 76.7603H484.99ZM484.99 68.1128H501.274C505.991 68.1128 509.753 66.9336 512.561 64.5752C515.406 62.2168 516.829 59.0161 516.829 54.9731C516.829 50.481 515.518 47.2241 512.898 45.2026C510.278 43.1437 506.291 42.1143 500.938 42.1143H484.99V68.1128Z"/><path fill="#160E02" d="M173.12 115H171.12V117H173.12V115ZM173.12 33.2422V31.2422H171.12V33.2422H173.12ZM219.839 38.7451L218.567 40.289L218.574 40.2942L219.839 38.7451ZM223.32 65.1929L224.925 66.3863L224.932 66.3765L223.32 65.1929ZM214.448 71.9873L213.658 70.15L208.454 72.3877L213.91 73.9134L214.448 71.9873ZM224.893 79.0625L223.278 80.243L223.285 80.2528L223.293 80.2625L224.893 79.0625ZM221.636 108.711L220.313 107.211L221.636 108.711ZM183.901 76.7603V74.7603H181.901V76.7603H183.901ZM183.901 106.184H181.901V108.184H183.901V106.184ZM213.55 102.31L214.885 103.799L214.886 103.798L213.55 102.31ZM183.901 68.1128H181.901V70.1128H183.901V68.1128ZM211.472 64.5752L210.196 63.0354L210.186 63.0438L211.472 64.5752ZM211.809 45.2026L210.573 46.7753L210.58 46.7808L210.587 46.7862L211.809 45.2026ZM183.901 42.1143V40.1143H181.901V42.1143H183.901ZM175.12 115V33.2422H171.12V115H175.12ZM173.12 35.2422H199.849V31.2422H173.12V35.2422ZM199.849 35.2422C208.494 35.2422 214.619 37.0373 218.567 40.289L221.11 37.2013C216.149 33.1157 208.947 31.2422 199.849 31.2422V35.2422ZM218.574 40.2942C222.491 43.4935 224.577 48.2849 224.577 55.0293H228.577C228.577 47.3987 226.171 41.334 221.104 37.1961L218.574 40.2942ZM224.577 55.0293C224.577 58.4404 223.617 61.4098 221.708 64.0093L224.932 66.3765C227.366 63.0613 228.577 59.2549 228.577 55.0293H224.577ZM221.715 63.9995C219.779 66.604 217.118 68.6624 213.658 70.15L215.238 73.8246C219.266 72.0929 222.519 69.6216 224.925 66.3863L221.715 63.9995ZM213.91 73.9134C217.924 75.0361 221.015 77.1476 223.278 80.243L226.507 77.882C223.679 74.0145 219.807 71.4092 214.987 70.0612L213.91 73.9134ZM223.293 80.2625C225.587 83.3213 226.767 87.0056 226.767 91.416H230.767C230.767 86.2431 229.364 81.6917 226.493 77.8625L223.293 80.2625ZM226.767 91.416C226.767 98.2791 224.567 103.459 220.313 107.211L222.959 110.211C228.213 105.577 230.767 99.2274 230.767 91.416H226.767ZM220.313 107.211C216.04 110.979 209.856 113 201.477 113V117C210.468 117 217.723 114.828 222.959 110.211L220.313 107.211ZM201.477 113H173.12V117H201.477V113ZM181.901 76.7603V106.184H185.901V76.7603H181.901ZM183.901 108.184H201.702V104.184H183.901V108.184ZM201.702 108.184C207.061 108.184 211.537 106.799 214.885 103.799L212.215 100.82C209.797 102.987 206.375 104.184 201.702 104.184V108.184ZM214.886 103.798C218.299 100.735 219.93 96.5609 219.93 91.5283H215.93C215.93 95.6299 214.641 98.6434 212.214 100.821L214.886 103.798ZM219.93 91.5283C219.93 86.2522 218.488 81.9402 215.269 78.9801C212.081 76.0492 207.492 74.7603 201.87 74.7603V78.7603C206.955 78.7603 210.395 79.9327 212.561 81.9244C214.695 83.887 215.93 86.959 215.93 91.5283H219.93ZM201.87 74.7603H183.901V78.7603H201.87V74.7603ZM183.901 70.1128H200.186V66.1128H183.901V70.1128ZM200.186 70.1128C205.235 70.1128 209.498 68.8457 212.759 66.1066L210.186 63.0438C207.831 65.0215 204.569 66.1128 200.186 66.1128V70.1128ZM212.749 66.115C216.099 63.3378 217.74 59.5479 217.74 54.9731H213.74C213.74 58.4843 212.536 61.0958 210.196 63.0354L212.749 66.115ZM217.74 54.9731C217.74 50.0985 216.304 46.1439 213.031 43.6191L210.587 46.7862C212.555 48.3044 213.74 50.8634 213.74 54.9731H217.74ZM213.045 43.63C209.915 41.1706 205.397 40.1143 199.849 40.1143V44.1143C205.006 44.1143 208.463 45.1168 210.573 46.7753L213.045 43.63ZM199.849 40.1143H183.901V44.1143H199.849V40.1143ZM181.901 42.1143V68.1128H185.901V42.1143H181.901ZM280.652 115L278.863 115.894L279.416 117H280.652V115ZM279.192 108.599L281.177 108.357L280.668 104.182L277.751 107.212L279.192 108.599ZM247.129 111.069L245.797 112.562L245.805 112.569L245.813 112.575L247.129 111.069ZM248.589 83.4424L249.764 85.0604L249.767 85.0588L248.589 83.4424ZM279.023 78.1641V80.1641H281.023V78.1641H279.023ZM275.767 64.7437L274.352 66.1579L274.359 66.164L274.365 66.1701L275.767 64.7437ZM253.081 71.0889V73.0889H255.081V71.0889H253.081ZM242.637 71.0889H240.637V73.0889H242.637V71.0889ZM245.837 62.3291L244.247 61.1158L244.245 61.1189L245.837 62.3291ZM254.597 55.5908L253.785 53.7632L253.778 53.7663L254.597 55.5908ZM283.235 58.3984L281.908 59.8948L281.916 59.9018L283.235 58.3984ZM289.412 72.8296H291.412V72.8052L291.411 72.7808L289.412 72.8296ZM291.545 114.102H293.545V113.688L293.382 113.309L291.545 114.102ZM291.545 115V117H293.545V115H291.545ZM279.023 97.9858L280.822 98.8602L281.023 98.4462V97.9858H279.023ZM279.023 85.52H281.023V83.52H279.023V85.52ZM282.441 114.106C282.01 113.245 281.551 111.419 281.177 108.357L277.207 108.841C277.582 111.918 278.095 114.359 278.863 115.894L282.441 114.106ZM277.751 107.212C273.282 111.853 268.031 114.123 261.897 114.123V118.123C269.165 118.123 275.443 115.376 280.633 109.986L277.751 107.212ZM261.897 114.123C256.304 114.123 251.876 112.561 248.445 109.563L245.813 112.575C250.094 116.316 255.51 118.123 261.897 118.123V114.123ZM248.46 109.577C245.075 106.557 243.401 102.799 243.401 98.1543H239.401C239.401 103.917 241.546 108.768 245.797 112.562L248.46 109.577ZM243.401 98.1543C243.401 92.4169 245.531 88.1365 249.764 85.0604L247.413 81.8244C242.064 85.7112 239.401 91.2387 239.401 98.1543H243.401ZM249.767 85.0588C254.129 81.8802 260.431 80.1641 268.916 80.1641V76.1641C259.957 76.1641 252.707 77.9668 247.411 81.826L249.767 85.0588ZM268.916 80.1641H279.023V76.1641H268.916V80.1641ZM281.023 78.1641V73.3911H277.023V78.1641H281.023ZM281.023 73.3911C281.023 69.3347 279.795 65.8984 277.168 63.3172L274.365 66.1701C276.081 67.8565 277.023 70.1852 277.023 73.3911H281.023ZM277.181 63.3294C274.511 60.6598 270.721 59.4868 266.165 59.4868V63.4868C270.069 63.4868 272.68 64.4851 274.352 66.1579L277.181 63.3294ZM266.165 59.4868C262.109 59.4868 258.561 60.5169 255.647 62.6916L258.039 65.8973C260.142 64.3284 262.808 63.4868 266.165 63.4868V59.4868ZM255.647 62.6916C252.735 64.865 251.081 67.6829 251.081 71.0889H255.081C255.081 69.1791 255.936 67.4674 258.039 65.8973L255.647 62.6916ZM253.081 69.0889H242.637V73.0889H253.081V69.0889ZM244.637 71.0889C244.637 68.5625 245.516 66.0579 247.43 63.5393L244.245 61.1189C241.892 64.2156 240.637 67.5508 240.637 71.0889H244.637ZM247.427 63.5424C249.373 60.9935 252.013 58.9432 255.416 57.4154L253.778 53.7663C249.844 55.5327 246.645 57.9746 244.247 61.1158L247.427 63.5424ZM255.409 57.4184C258.838 55.8948 262.62 55.1201 266.782 55.1201V51.1201C262.11 51.1201 257.769 51.9926 253.785 53.7632L255.409 57.4184ZM266.782 55.1201C273.453 55.1201 278.41 56.7925 281.908 59.8948L284.562 56.9021C280.124 52.9666 274.112 51.1201 266.782 51.1201V55.1201ZM281.916 59.9018C285.394 62.9536 287.274 67.1977 287.412 72.8784L291.411 72.7808C291.25 66.1828 289.012 60.8061 284.554 56.895L281.916 59.9018ZM287.412 72.8296V100.793H291.412V72.8296H287.412ZM287.412 100.793C287.412 106.509 288.136 111.25 289.709 114.894L293.382 113.309C292.11 110.365 291.412 106.234 291.412 100.793H287.412ZM289.545 114.102V115H293.545V114.102H289.545ZM291.545 113H280.652V117H291.545V113ZM263.413 109.083C267.033 109.083 270.465 108.142 273.678 106.288L271.679 102.823C269.052 104.339 266.306 105.083 263.413 105.083V109.083ZM273.678 106.288C276.899 104.43 279.316 101.959 280.822 98.8602L277.225 97.1115C276.111 99.4035 274.297 101.313 271.679 102.823L273.678 106.288ZM281.023 97.9858V85.52H277.023V97.9858H281.023ZM279.023 83.52H270.881V87.52H279.023V83.52ZM270.881 83.52C264.388 83.52 259.19 84.4586 255.552 86.5875C251.75 88.8132 249.79 92.2683 249.79 96.6943H253.79C253.79 93.6708 255.012 91.5387 257.573 90.0397C260.299 88.4438 264.647 87.52 270.881 87.52V83.52ZM249.79 96.6943C249.79 100.444 251.066 103.587 253.756 105.859L256.337 102.803C254.684 101.407 253.79 99.4582 253.79 96.6943H249.79ZM253.756 105.859C256.356 108.056 259.632 109.083 263.413 109.083V105.083C260.381 105.083 258.079 104.275 256.337 102.803L253.756 105.859ZM315.522 54.2432L317.521 54.155L317.436 52.2432H315.522V54.2432ZM315.859 61.8799L313.861 61.968L314.097 67.3112L317.425 63.1244L315.859 61.8799ZM353.481 74.8511H355.481V74.8433L355.481 74.8356L353.481 74.8511ZM353.481 115V117H355.481V115H353.481ZM343.093 115H341.093V117H343.093V115ZM343.093 74.7949H345.093V74.7864L345.093 74.7778L343.093 74.7949ZM340.061 65.0806L338.595 66.4415L338.602 66.4484L338.608 66.4553L340.061 65.0806ZM316.084 71.7065L314.286 70.8306L314.084 71.2453V71.7065H316.084ZM316.084 115V117H318.084V115H316.084ZM305.696 115H303.696V117H305.696V115ZM305.696 54.2432V52.2432H303.696V54.2432H305.696ZM313.524 54.3313L313.861 61.968L317.857 61.7917L317.521 54.155L313.524 54.3313ZM317.425 63.1244C321.686 57.7639 327.173 55.1201 334.053 55.1201V51.1201C325.959 51.1201 319.317 54.3162 314.294 60.6354L317.425 63.1244ZM334.053 55.1201C340.097 55.1201 344.302 56.8138 347.049 59.8859C349.836 63.0029 351.427 67.8771 351.482 74.8666L355.481 74.8356C355.423 67.3377 353.72 61.3464 350.031 57.2198C346.301 53.0483 340.849 51.1201 334.053 51.1201V55.1201ZM351.481 74.8511V115H355.481V74.8511H351.481ZM353.481 113H343.093V117H353.481V113ZM345.093 115V74.7949H341.093V115H345.093ZM345.093 74.7778C345.054 70.147 343.988 66.3198 341.514 63.7058L338.608 66.4553C340.103 68.0341 341.058 70.683 341.093 74.812L345.093 74.7778ZM341.527 63.7197C339.057 61.0606 335.365 59.936 330.908 59.936V63.936C334.762 63.936 337.171 64.9079 338.595 66.4415L341.527 63.7197ZM330.908 59.936C327.161 59.936 323.794 60.9427 320.883 62.9974L323.189 66.2653C325.37 64.7262 327.917 63.936 330.908 63.936V59.936ZM320.883 62.9974C318.05 64.997 315.85 67.6211 314.286 70.8306L317.882 72.5825C319.163 69.9522 320.931 67.8595 323.189 66.2653L320.883 62.9974ZM314.084 71.7065V115H318.084V71.7065H314.084ZM316.084 113H305.696V117H316.084V113ZM307.696 115V54.2432H303.696V115H307.696ZM305.696 56.2432H315.522V52.2432H305.696V56.2432ZM380.435 115V117H382.435V115H380.435ZM370.046 115H368.046V117H370.046V115ZM370.046 54.2432V52.2432H368.046V54.2432H370.046ZM380.435 54.2432H382.435V52.2432H380.435V54.2432ZM370.72 33.8599L369.236 32.5193L369.224 32.5327L369.212 32.5463L370.72 33.8599ZM370.72 42.3389L369.234 43.6768L369.246 43.6903L369.258 43.7035L370.72 42.3389ZM380.435 113H370.046V117H380.435V113ZM372.046 115V54.2432H368.046V115H372.046ZM370.046 56.2432H380.435V52.2432H370.046V56.2432ZM378.435 54.2432V115H382.435V54.2432H378.435ZM371.204 38.1274C371.204 36.8765 371.566 35.9343 372.228 35.1734L369.212 32.5463C367.853 34.1064 367.204 36.0093 367.204 38.1274H371.204ZM372.204 35.2004C372.77 34.5746 373.693 34.1191 375.325 34.1191V30.1191C372.913 30.1191 370.767 30.8242 369.236 32.5193L372.204 35.2004ZM375.325 34.1191C376.956 34.1191 377.88 34.5746 378.445 35.2004L381.413 32.5193C379.882 30.8242 377.736 30.1191 375.325 30.1191V34.1191ZM378.445 35.2004C379.134 35.9636 379.501 36.8965 379.501 38.1274H383.501C383.501 35.9892 382.82 34.0771 381.413 32.5193L378.445 35.2004ZM379.501 38.1274C379.501 39.3587 379.135 40.2587 378.467 40.9742L381.391 43.7035C382.82 42.1729 383.501 40.2654 383.501 38.1274H379.501ZM378.467 40.9742C377.907 41.5748 376.976 42.0234 375.325 42.0234V46.0234C377.717 46.0234 379.855 45.349 381.391 43.7035L378.467 40.9742ZM375.325 42.0234C373.674 42.0234 372.743 41.5748 372.182 40.9742L369.258 43.7035C370.794 45.349 372.933 46.0234 375.325 46.0234V42.0234ZM372.207 41.0009C371.565 40.2882 371.204 39.3791 371.204 38.1274H367.204C367.204 40.2449 367.854 42.1434 369.234 43.6768L372.207 41.0009ZM398.74 115H396.74V117H398.74V115ZM398.74 33.2422V31.2422H396.74V33.2422H398.74ZM453.32 51.3794L451.538 52.2876L451.543 52.2967L453.32 51.3794ZM457.869 71.3696H459.869L459.869 71.3597L457.869 71.3696ZM453.376 96.8628L451.599 95.9455L451.595 95.9546L453.376 96.8628ZM440.63 110.227L439.652 108.483L439.647 108.485L440.63 110.227ZM421.37 115V117H421.38L421.39 117L421.37 115ZM409.521 42.1143V40.1143H407.521V42.1143H409.521ZM409.521 106.184H407.521V108.184H409.521V106.184ZM440.237 98.4351L438.749 97.0983L438.744 97.1043L440.237 98.4351ZM440.63 49.9756L439.099 51.2625L439.104 51.2685L439.109 51.2744L440.63 49.9756ZM422.1 42.1143L422.118 40.1143L422.109 40.1143H422.1V42.1143ZM400.74 115V33.2422H396.74V115H400.74ZM398.74 35.2422H421.819V31.2422H398.74V35.2422ZM421.819 35.2422C428.627 35.2422 434.564 36.744 439.689 39.6925L441.683 36.2254C435.877 32.8849 429.236 31.2422 421.819 31.2422V35.2422ZM439.689 39.6925C444.807 42.6372 448.751 46.8185 451.538 52.2876L455.102 50.4712C451.975 44.3354 447.496 39.5699 441.683 36.2254L439.689 39.6925ZM451.543 52.2967C454.372 57.7785 455.833 64.1227 455.869 71.3796L459.869 71.3597C459.83 63.5678 458.258 56.5851 455.098 50.4621L451.543 52.2967ZM455.869 71.3696V76.5918H459.869V71.3696H455.869ZM455.869 76.5918C455.869 84.0418 454.423 90.4738 451.599 95.9455L455.154 97.7801C458.319 91.647 459.869 84.565 459.869 76.5918H455.869ZM451.595 95.9546C448.812 101.414 444.838 105.574 439.652 108.483L441.608 111.971C447.502 108.666 452.026 103.916 455.158 97.771L451.595 95.9546ZM439.647 108.485C434.482 111.402 428.404 112.928 421.349 113L421.39 117C429.01 116.922 435.772 115.267 441.613 111.969L439.647 108.485ZM421.37 113H398.74V117H421.37V113ZM407.521 42.1143V106.184H411.521V42.1143H407.521ZM409.521 108.184H420.864V104.184H409.521V108.184ZM420.864 108.184C429.62 108.184 436.67 105.443 441.73 99.7658L438.744 97.1043C434.595 101.759 428.729 104.184 420.864 104.184V108.184ZM441.724 99.7718C446.802 94.1206 449.2 86.2207 449.2 76.3672H445.2C445.2 85.6054 442.955 92.4175 438.749 97.0983L441.724 99.7718ZM449.2 76.3672V71.5942H445.2V76.3672H449.2ZM449.2 71.5942C449.2 62.0132 446.939 54.2836 442.151 48.6767L439.109 51.2744C443.08 55.9248 445.2 62.6076 445.2 71.5942H449.2ZM442.161 48.6887C437.371 42.991 430.593 40.1935 422.118 40.1143L422.081 44.1142C429.628 44.1847 435.203 46.6282 439.099 51.2625L442.161 48.6887ZM422.1 40.1143H409.521V44.1143H422.1V40.1143ZM474.209 115H472.209V117H474.209V115ZM474.209 33.2422V31.2422H472.209V33.2422H474.209ZM520.928 38.7451L519.656 40.289L519.663 40.2942L520.928 38.7451ZM524.409 65.1929L526.014 66.3863L526.021 66.3765L524.409 65.1929ZM515.537 71.9873L514.747 70.15L509.543 72.3877L514.998 73.9134L515.537 71.9873ZM525.981 79.0625L524.367 80.243L524.374 80.2528L524.381 80.2625L525.981 79.0625ZM522.725 108.711L521.402 107.211L522.725 108.711ZM484.99 76.7603V74.7603H482.99V76.7603H484.99ZM484.99 106.184H482.99V108.184H484.99V106.184ZM514.639 102.31L515.973 103.799L515.974 103.798L514.639 102.31ZM484.99 68.1128H482.99V70.1128H484.99V68.1128ZM512.561 64.5752L511.285 63.0354L511.275 63.0438L512.561 64.5752ZM512.898 45.2026L511.662 46.7753L511.669 46.7808L511.676 46.7862L512.898 45.2026ZM484.99 42.1143V40.1143H482.99V42.1143H484.99ZM476.209 115V33.2422H472.209V115H476.209ZM474.209 35.2422H500.938V31.2422H474.209V35.2422ZM500.938 35.2422C509.583 35.2422 515.708 37.0373 519.656 40.289L522.199 37.2013C517.238 33.1157 510.036 31.2422 500.938 31.2422V35.2422ZM519.663 40.2942C523.58 43.4935 525.666 48.2849 525.666 55.0293H529.666C529.666 47.3987 527.26 41.334 522.193 37.1961L519.663 40.2942ZM525.666 55.0293C525.666 58.4404 524.706 61.4098 522.797 64.0093L526.021 66.3765C528.455 63.0613 529.666 59.2549 529.666 55.0293H525.666ZM522.804 63.9995C520.868 66.604 518.207 68.6624 514.747 70.15L516.327 73.8246C520.355 72.0929 523.608 69.6216 526.014 66.3863L522.804 63.9995ZM514.998 73.9134C519.013 75.0361 522.104 77.1476 524.367 80.243L527.596 77.882C524.768 74.0145 520.896 71.4092 516.076 70.0612L514.998 73.9134ZM524.381 80.2625C526.676 83.3213 527.856 87.0056 527.856 91.416H531.856C531.856 86.2431 530.453 81.6917 527.581 77.8625L524.381 80.2625ZM527.856 91.416C527.856 98.2791 525.656 103.459 521.402 107.211L524.047 110.211C529.302 105.577 531.856 99.2274 531.856 91.416H527.856ZM521.402 107.211C517.129 110.979 510.945 113 502.566 113V117C511.557 117 518.812 114.828 524.047 110.211L521.402 107.211ZM502.566 113H474.209V117H502.566V113ZM482.99 76.7603V106.184H486.99V76.7603H482.99ZM484.99 108.184H502.791V104.184H484.99V108.184ZM502.791 108.184C508.15 108.184 512.626 106.799 515.973 103.799L513.304 100.82C510.886 102.987 507.464 104.184 502.791 104.184V108.184ZM515.974 103.798C519.388 100.735 521.019 96.5609 521.019 91.5283H517.019C517.019 95.6299 515.729 98.6434 513.303 100.821L515.974 103.798ZM521.019 91.5283C521.019 86.2522 519.576 81.9402 516.357 78.9801C513.17 76.0492 508.581 74.7603 502.959 74.7603V78.7603C508.044 78.7603 511.484 79.9327 513.65 81.9244C515.784 83.887 517.019 86.959 517.019 91.5283H521.019ZM502.959 74.7603H484.99V78.7603H502.959V74.7603ZM484.99 70.1128H501.274V66.1128H484.99V70.1128ZM501.274 70.1128C506.324 70.1128 510.587 68.8457 513.847 66.1066L511.275 63.0438C508.92 65.0215 505.658 66.1128 501.274 66.1128V70.1128ZM513.837 66.115C517.188 63.3378 518.829 59.5479 518.829 54.9731H514.829C514.829 58.4843 513.625 61.0958 511.285 63.0354L513.837 66.115ZM518.829 54.9731C518.829 50.0985 517.392 46.1439 514.12 43.6191L511.676 46.7862C513.644 48.3044 514.829 50.8634 514.829 54.9731H518.829ZM514.134 43.63C511.003 41.1706 506.486 40.1143 500.938 40.1143V44.1143C506.095 44.1143 509.552 45.1168 511.662 46.7753L514.134 43.63ZM500.938 40.1143H484.99V44.1143H500.938V40.1143ZM482.99 42.1143V68.1128H486.99V42.1143H482.99Z"/><defs><linearGradient id="paint0_linear" x1="660.176" x2="561.936" y1="-45" y2="36.44" gradientUnits="userSpaceOnUse"><stop stop-color="#FB9F1C"/><stop offset="1" stop-color="#FB9F1C"/><stop offset="1" stop-color="#15648D"/></linearGradient></defs></svg>