<svg xmlns="http://www.w3.org/2000/svg" width="167.23" height="35" viewBox="0 0 167.23 35"><rect width="66.86" height="35" x="0" y="0" fill="#093442" class="svg__rect"/><rect width="102.37" height="35" x="64.86" y="0" fill="#28A00C" class="svg__rect"/><path fill="#FFF" d="M16.67 22L14.22 22L14.22 13.47L16.74 13.47Q17.87 13.47 18.74 13.97Q19.62 14.48 20.10 15.40Q20.58 16.33 20.58 17.52L20.58 17.52L20.58 17.95Q20.58 19.16 20.10 20.08Q19.61 21.00 18.72 21.50Q17.83 22 16.67 22L16.67 22ZM15.70 14.66L15.70 20.82L16.67 20.82Q17.83 20.82 18.46 20.09Q19.08 19.36 19.09 17.99L19.09 17.99L19.09 17.52Q19.09 16.13 18.49 15.40Q17.89 14.66 16.74 14.66L16.74 14.66L15.70 14.66ZM24.78 18.00L24.78 18.00L24.78 17.52Q24.78 16.28 25.22 15.32Q25.66 14.37 26.47 13.86Q27.27 13.35 28.31 13.35Q29.36 13.35 30.16 13.85Q30.97 14.35 31.41 15.29Q31.85 16.23 31.85 17.48L31.85 17.48L31.85 17.96Q31.85 19.21 31.42 20.16Q30.99 21.10 30.18 21.61Q29.38 22.12 28.33 22.12L28.33 22.12Q27.29 22.12 26.48 21.61Q25.67 21.10 25.22 20.17Q24.78 19.23 24.78 18.00ZM26.26 17.46L26.26 17.96Q26.26 19.36 26.81 20.13Q27.35 20.90 28.33 20.90L28.33 20.90Q29.31 20.90 29.84 20.15Q30.37 19.40 30.37 17.96L30.37 17.96L30.37 17.51Q30.37 16.09 29.84 15.34Q29.30 14.58 28.31 14.58L28.31 14.58Q27.35 14.58 26.81 15.33Q26.27 16.09 26.26 17.46L26.26 17.46ZM36.05 18.19L36.05 18.19L36.05 17.39Q36.05 16.19 36.48 15.27Q36.90 14.35 37.70 13.85Q38.50 13.35 39.55 13.35L39.55 13.35Q40.97 13.35 41.83 14.12Q42.69 14.89 42.83 16.29L42.83 16.29L41.35 16.29Q41.25 15.37 40.82 14.96Q40.39 14.55 39.55 14.55L39.55 14.55Q38.59 14.55 38.07 15.26Q37.55 15.96 37.54 17.33L37.54 17.33L37.54 18.09Q37.54 19.47 38.03 20.20Q38.53 20.92 39.48 20.92L39.48 20.92Q40.36 20.92 40.80 20.53Q41.23 20.14 41.35 19.22L41.35 19.22L42.83 19.22Q42.70 20.59 41.82 21.35Q40.94 22.12 39.48 22.12L39.48 22.12Q38.46 22.12 37.69 21.63Q36.91 21.15 36.49 20.26Q36.07 19.37 36.05 18.19ZM46.71 19.42L46.71 19.42L48.19 19.42Q48.19 20.15 48.67 20.55Q49.15 20.95 50.05 20.95L50.05 20.95Q50.82 20.95 51.21 20.63Q51.60 20.32 51.60 19.80L51.60 19.80Q51.60 19.24 51.20 18.94Q50.81 18.63 49.78 18.32Q48.75 18.01 48.14 17.63L48.14 17.63Q46.97 16.90 46.97 15.72L46.97 15.72Q46.97 14.69 47.81 14.02Q48.65 13.35 49.99 13.35L49.99 13.35Q50.89 13.35 51.58 13.68Q52.28 14.01 52.68 14.61Q53.08 15.22 53.08 15.96L53.08 15.96L51.60 15.96Q51.60 15.29 51.18 14.91Q50.76 14.54 49.98 14.54L49.98 14.54Q49.26 14.54 48.85 14.85Q48.45 15.16 48.45 15.71L48.45 15.71Q48.45 16.18 48.89 16.50Q49.32 16.81 50.32 17.10Q51.31 17.40 51.92 17.78Q52.52 18.16 52.80 18.65Q53.08 19.13 53.08 19.79L53.08 19.79Q53.08 20.86 52.27 21.49Q51.45 22.12 50.05 22.12L50.05 22.12Q49.12 22.12 48.35 21.77Q47.57 21.43 47.14 20.83Q46.71 20.22 46.71 19.42Z" class="svg__text"/><path x="77.86" fill="#FFF" d="M81.43 22L79.05 22L79.05 13.60L82.89 13.60Q84.03 13.60 84.87 13.98Q85.71 14.35 86.17 15.06Q86.62 15.76 86.62 16.71L86.62 16.71Q86.62 17.66 86.17 18.35Q85.71 19.05 84.87 19.42Q84.03 19.80 82.89 19.80L82.89 19.80L81.43 19.80L81.43 22ZM81.43 15.47L81.43 17.93L82.75 17.93Q83.48 17.93 83.85 17.61Q84.22 17.29 84.22 16.71L84.22 16.71Q84.22 16.12 83.85 15.80Q83.48 15.47 82.75 15.47L82.75 15.47L81.43 15.47ZM92.79 22L90.37 22L94.08 13.60L96.42 13.60L100.14 22L97.67 22L97.01 20.37L93.46 20.37L92.79 22ZM95.23 15.93L94.15 18.61L96.31 18.61L95.23 15.93ZM103.70 21.24L103.70 21.24L104.48 19.49Q105.05 19.86 105.79 20.09Q106.53 20.32 107.25 20.32L107.25 20.32Q108.62 20.32 108.63 19.64L108.63 19.64Q108.63 19.28 108.24 19.11Q107.85 18.93 106.98 18.74L106.98 18.74Q106.03 18.53 105.39 18.30Q104.76 18.06 104.30 17.55Q103.85 17.03 103.85 16.16L103.85 16.16Q103.85 15.39 104.27 14.77Q104.69 14.15 105.52 13.79Q106.36 13.43 107.57 13.43L107.57 13.43Q108.39 13.43 109.20 13.62Q110.00 13.80 110.62 14.17L110.62 14.17L109.89 15.93Q108.68 15.28 107.55 15.28L107.55 15.28Q106.84 15.28 106.52 15.49Q106.20 15.70 106.20 16.04L106.20 16.04Q106.20 16.37 106.58 16.54Q106.97 16.71 107.82 16.89L107.82 16.89Q108.78 17.10 109.41 17.33Q110.04 17.56 110.50 18.07Q110.96 18.58 110.96 19.46L110.96 19.46Q110.96 20.21 110.54 20.83Q110.13 21.44 109.29 21.80Q108.44 22.17 107.24 22.17L107.24 22.17Q106.22 22.17 105.26 21.92Q104.30 21.67 103.70 21.24ZM114.95 21.24L114.95 21.24L115.73 19.49Q116.30 19.86 117.04 20.09Q117.78 20.32 118.50 20.32L118.50 20.32Q119.87 20.32 119.88 19.64L119.88 19.64Q119.88 19.28 119.49 19.11Q119.10 18.93 118.23 18.74L118.23 18.74Q117.28 18.53 116.64 18.30Q116.01 18.06 115.55 17.55Q115.10 17.03 115.10 16.16L115.10 16.16Q115.10 15.39 115.52 14.77Q115.94 14.15 116.77 13.79Q117.61 13.43 118.82 13.43L118.82 13.43Q119.64 13.43 120.45 13.62Q121.25 13.80 121.87 14.17L121.87 14.17L121.14 15.93Q119.93 15.28 118.80 15.28L118.80 15.28Q118.09 15.28 117.77 15.49Q117.45 15.70 117.45 16.04L117.45 16.04Q117.45 16.37 117.83 16.54Q118.22 16.71 119.07 16.89L119.07 16.89Q120.03 17.10 120.66 17.33Q121.29 17.56 121.75 18.07Q122.21 18.58 122.21 19.46L122.21 19.46Q122.21 20.21 121.79 20.83Q121.38 21.44 120.54 21.80Q119.69 22.17 118.49 22.17L118.49 22.17Q117.47 22.17 116.51 21.92Q115.55 21.67 114.95 21.24ZM129.17 22L126.79 22L126.79 13.60L129.17 13.60L129.17 22ZM136.67 22L134.34 22L134.34 13.60L136.30 13.60L140.01 18.07L140.01 13.60L142.34 13.60L142.34 22L140.38 22L136.67 17.52L136.67 22ZM147.07 17.80L147.07 17.80Q147.07 16.54 147.67 15.54Q148.26 14.55 149.33 13.99Q150.40 13.43 151.75 13.43L151.75 13.43Q152.92 13.43 153.86 13.83Q154.80 14.22 155.42 14.97L155.42 14.97L153.91 16.33Q153.06 15.40 151.89 15.40L151.89 15.40Q151.87 15.40 151.87 15.40L151.87 15.40Q150.79 15.40 150.13 16.06Q149.47 16.71 149.47 17.80L149.47 17.80Q149.47 18.50 149.77 19.04Q150.07 19.59 150.61 19.89Q151.15 20.20 151.84 20.20L151.84 20.20Q152.53 20.20 153.13 19.93L153.13 19.93L153.13 17.62L155.23 17.62L155.23 21.10Q154.50 21.61 153.57 21.89Q152.64 22.17 151.70 22.17L151.70 22.17Q150.38 22.17 149.32 21.61Q148.26 21.05 147.67 20.05Q147.07 19.06 147.07 17.80Z" class="svg__text"/></svg>